<svg width="110" height="48" viewBox="0 0 110 48" fill="none" xmlns="http://www.w3.org/2000/svg">
<rect width="110" height="48" fill="white"/>
<path d="M29.3228 24.2224L29.1333 24.0983C28.4949 23.4364 27.602 23.1468 26.4149 23.2192C25.4224 23.2813 24.6393 23.6898 24.0358 24.0672V24.0414C24.0358 23.7208 24.0707 23.3692 24.1056 23.0331C24.1405 22.6866 24.1754 22.335 24.1754 22.0041C24.1754 21.6732 24.1405 21.3474 24.0258 21.0682C23.9959 21.001 23.936 20.9544 23.8562 20.9544C23.537 20.9596 22.9085 21.1871 22.7589 21.3267L22.6791 21.5129C22.6791 21.88 22.5943 22.909 22.5145 23.0279L22.4746 23.152C22.3399 24.6154 22.3349 25.9081 22.4596 27.0146C22.4746 27.1284 22.6791 27.2938 22.8387 27.3507C23.0133 27.4179 23.5569 27.268 23.8712 27.1439L23.9909 27.1232C24.0906 27.1129 24.1505 27.025 24.1455 26.906L24.1555 26.5854C24.3799 25.6288 25.2977 24.4913 26.385 24.3206C26.9985 24.2224 27.4823 24.3827 27.8664 24.817C27.9213 24.8946 28.031 25.5823 27.627 26.3734C27.3277 26.9577 26.7242 27.449 25.9311 27.7592C25.183 28.0539 24.355 28.1729 23.3375 28.1367C23.2976 28.1057 22.3848 27.4696 22.3848 27.4696C21.5768 26.8802 20.5742 26.1511 19.6615 25.7943C19.5019 25.7323 19.2176 25.4841 19.043 25.3393L18.9482 25.2565C18.4245 24.8222 17.4269 24.1293 16.6239 23.576C16.6239 23.576 16.2648 23.3227 16.1949 23.2761V23.183C16.2199 23.1572 16.7237 22.8418 16.7237 22.8418C17.4319 22.4126 17.7561 22.2058 17.826 22.0972C17.811 22.1127 17.9207 22.0403 17.9207 22.0403C17.9257 22.0403 19.6714 21.0165 19.6714 21.0165C21.3523 20.0599 23.2527 18.974 24.2502 17.9036L24.3001 17.7382L24.3201 17.5934C24.3849 17.3659 24.3899 17.1901 24.335 16.9832C24.3201 16.9264 24.2702 16.8591 24.2004 16.8436C23.4223 16.7609 22.4147 17.2469 21.497 18.1363C21.2925 18.338 21.1179 18.4362 20.9334 18.5397L20.7937 18.6224C19.7862 19.217 17.5067 20.6804 16.3196 21.4715C16.3945 20.1426 16.6339 18.2553 16.9282 16.6833L16.8932 16.4972L16.7685 16.2593L16.6738 16.0887L16.6488 16.0783C16.4094 15.9542 16.2149 16.006 16.0752 16.0422L15.8358 16.1352L15.5216 16.2542C15.4617 16.2645 15.4169 16.3059 15.3919 16.3679C14.8233 17.7899 14.3495 20.1374 14.2347 22.0093C13.0975 21.2595 12.0501 20.7217 11.5314 20.4632L11.5164 20.4529L11.4565 20.4373C11.272 20.4115 11.0426 20.2719 10.8281 20.1323C10.8031 20.1167 10.3941 19.8427 10.3941 19.8427L9.73575 19.4032L9.56118 19.3618C9.27688 19.4135 8.73321 19.791 8.56861 20.0495C8.54866 20.0857 8.53868 20.1219 8.53868 20.1581C8.53868 20.215 8.55365 20.2667 8.56861 20.3184L8.59854 20.458L8.62846 20.5408C8.94269 20.8769 9.74573 21.4405 10.5288 21.8748L11.4366 22.3712L12.8282 23.1572L13.0676 23.3537L13.2322 23.4519C13.2322 23.4519 13.2521 23.4623 13.2621 23.4726C12.893 23.7311 10.7333 25.2255 10.7333 25.2255L9.40157 26.1356C9.27688 26.2235 8.75316 26.4717 8.63345 26.5182C8.34416 26.6371 8.12968 26.8233 8.03491 27.0301L8 27.1077L8.03491 27.1594L8.13467 27.237L8.26934 27.33L8.41399 27.4334L8.55365 27.4541C8.78807 27.4645 9.13223 27.3249 9.78064 27.0301C10.3742 26.7561 11.9902 25.7478 12.6786 25.3186L12.9728 25.1376C13.0925 25.1479 13.2272 25.0394 13.3469 24.9463C13.4866 24.8325 13.7858 24.6412 13.9704 24.5585C13.9754 24.5585 14.0801 24.4964 14.1799 24.4395C14.1799 24.4706 14.1799 24.5223 14.1799 24.5223C14.2098 26.7095 14.3295 28.3021 14.5639 29.5276V29.5483L14.5889 29.5948C14.7036 29.7707 14.8333 30.2877 14.948 30.7428L15.2124 31.658L15.2872 31.7459C15.4368 31.8493 15.8957 32.0355 16.1999 31.9941L16.2748 31.9838L16.3246 31.87C16.3496 31.7356 16.3595 31.6011 16.3595 31.4512C16.3595 31.2857 16.3446 31.0996 16.3346 30.8772L16.3147 30.5463C16.2149 29.0157 16.1201 26.8129 16.1201 25.3444V25.2307C16.3695 25.391 17.4668 26.1097 17.4668 26.1097C19.3323 27.3662 22.1454 29.2587 23.8462 29.7603C23.936 29.7913 24.0308 29.7655 24.0906 29.7034L24.355 29.5276L24.4049 29.5069C24.5046 29.4604 24.5695 29.2898 24.5794 29.1036C26.0159 29.0312 28.016 28.4573 29.0834 27.0611C29.4974 26.5182 29.6819 25.8563 29.6819 25.2927C29.6819 24.8274 29.5573 24.4292 29.3328 24.2069" fill="#FCAF16"/>
<path d="M75.1356 22.6764H71.5145V19.5894H75.1356V22.6764ZM76.4474 18.4053H70.2077V23.8656H76.4474V18.4053Z" fill="#776C61"/>
<path d="M64.1377 22.9245V24.6308H67.9982V29.0984H66.6815V25.8098H58.9354V24.6308H62.8209V22.9245H58.1274V21.7455H66.6166V19.3876H59.0801V18.2139H67.9384V21.7404H68.8811V22.9245H64.1377Z" fill="#776C61"/>
<path d="M79.6745 29.0516H71.3948V25.0391H72.7115V27.8675H79.6745V29.0516Z" fill="#776C61"/>
<path d="M79.5748 18.1416H78.263V25.3135H79.5748V18.1416Z" fill="#776C61"/>
<path d="M34.6 18.2295H36.2709V23.0952L41.9021 18.2295H44.2713L38.3209 23.1366L44.7651 29.0934H42.3959L36.2709 23.271V29.0934H34.6V18.2295Z" fill="#776C61"/>
<path d="M45.9321 18.2554H51.0845C53.5335 18.2554 54.8154 19.0982 54.8154 20.9442C54.8154 22.2576 53.9326 23.1573 52.7554 23.4003V23.4469C54.4413 23.6537 55.2394 24.8016 55.2394 26.0943C55.2394 27.718 54.0922 29.1192 51.2491 29.1192H45.9321V18.2554ZM47.603 22.8315H50.9997C52.2616 22.8315 53.1944 22.3351 53.1944 21.1769C53.1944 20.1686 52.7355 19.4912 50.8052 19.4912H47.5981V22.8315H47.603ZM47.603 27.8834H50.895C52.94 27.8834 53.4837 27.0509 53.4837 26.0012C53.4837 24.7551 52.6507 24.0622 50.8052 24.0622H47.5981V27.8834H47.603Z" fill="#776C61"/>
<path d="M80.9266 18.4258V19.6099H85.6201V21.2439H80.9266V22.4176H85.6201V25.5512H86.9518V18.4258H80.9266Z" fill="#776C61"/>
<path d="M102 27.1853H91.9397V28.3539H102V27.1853Z" fill="#776C61"/>
<path d="M94.3188 19.5944H100.918V18.4258H93.017V24.7135H100.918V23.5397H94.3188V19.5944Z" fill="#776C61"/>
<path d="M88.548 29.0932H89.8747V22.0971H91.2115V20.913H89.8747V18.188H88.548V29.0932Z" fill="#776C61"/>
</svg>
