<svg width="110" height="48" viewBox="0 0 110 48" fill="none" xmlns="http://www.w3.org/2000/svg">
<rect width="110" height="48" fill="white"/>
<path d="M29.1934 24.1916L29.0051 24.0727C28.3708 23.4381 27.4838 23.1654 26.3045 23.2348C25.3184 23.2943 24.5404 23.686 23.9409 24.0479C23.9409 24.038 23.9409 24.028 23.9409 24.0231C23.9409 23.7157 23.9755 23.3786 24.0102 23.0564C24.0449 22.7242 24.0796 22.392 24.0796 22.0747C24.0796 21.7575 24.0449 21.4402 23.9309 21.1774C23.9012 21.108 23.8417 21.0684 23.7625 21.0684C23.4453 21.0733 22.821 21.2914 22.6723 21.4253L22.5881 21.6038C22.5881 21.9558 22.5038 22.9423 22.4246 23.0613L22.3849 23.1803C22.2511 24.5883 22.2462 25.8227 22.3701 26.8836C22.3849 26.9877 22.5881 27.1464 22.7467 27.2059C22.9201 27.2703 23.4602 27.1265 23.7724 27.0076L23.8913 26.9877C23.9904 26.9778 24.0499 26.8935 24.0449 26.7795L24.0548 26.4721C24.2778 25.555 25.1896 24.4643 26.2698 24.3007C26.8793 24.2065 27.3599 24.3602 27.7415 24.7766C27.791 24.851 27.905 25.5104 27.5036 26.2689C27.2063 26.8291 26.6067 27.3001 25.8189 27.5975C25.0756 27.8801 24.253 27.9941 23.2422 27.9594C23.1976 27.9297 22.2957 27.3199 22.2957 27.3199C21.493 26.7547 20.497 26.0557 19.5902 25.7136C19.4316 25.6541 19.1492 25.4162 18.9757 25.2724L18.8816 25.198C18.3613 24.7816 17.3703 24.1173 16.5725 23.5868C16.5725 23.5868 16.2108 23.3439 16.1414 23.2993C16.1414 23.2695 16.1414 23.21 16.1414 23.21C16.1662 23.1853 16.6666 22.8828 16.6666 22.8828C17.3653 22.4714 17.6924 22.2731 17.7617 22.1689C17.7469 22.1838 17.8559 22.1144 17.8559 22.1144C17.8608 22.1144 19.5951 21.1328 19.5951 21.1328C21.265 20.2157 23.153 19.1746 24.144 18.1483L24.1936 17.9897L24.2134 17.8509C24.2778 17.6327 24.2828 17.4642 24.2283 17.2659C24.2134 17.2113 24.1638 17.1469 24.0945 17.132C23.3215 17.0527 22.3205 17.5187 21.4087 18.3714C21.2056 18.5648 21.0322 18.659 20.8488 18.7581L20.7101 18.8374C19.7091 19.4076 17.4496 20.8106 16.2653 21.5691C16.3445 20.295 16.5774 18.4854 16.8698 16.9783L16.8351 16.7999L16.7112 16.5718L16.6171 16.4082H16.5923C16.3545 16.2843 16.1612 16.3289 16.0225 16.3636L15.7846 16.4528L15.4675 16.5669C15.4031 16.5817 15.3634 16.6164 15.3386 16.6759C14.7737 18.0442 14.303 20.29 14.189 22.0847C13.0593 21.3658 12.0187 20.8502 11.5033 20.6023L11.4885 20.5924L11.429 20.5776C11.2457 20.5528 11.0177 20.4189 10.8046 20.2851C10.7799 20.2702 10.3735 20.0074 10.3735 20.0074L9.71945 19.586L9.54602 19.5464C9.26357 19.596 8.72346 19.9579 8.56489 20.2057C8.54507 20.2404 8.53516 20.2751 8.53516 20.3098C8.53516 20.3644 8.55003 20.414 8.56489 20.4635L8.59462 20.5974L8.62435 20.6767C8.94149 20.999 9.73432 21.5344 10.5123 21.9558L11.4141 22.4317L12.7966 23.1853L13.0295 23.3736L13.193 23.4678C13.193 23.4678 13.2129 23.4777 13.2228 23.4877C12.8561 23.7355 10.7105 25.1683 10.7105 25.1683L9.39241 26.0458C9.26853 26.1301 8.74823 26.3631 8.62931 26.4126C8.34191 26.5316 8.12883 26.7101 8.03469 26.9035L8 26.9778L8.03469 27.0274L8.13379 27.1018L8.26758 27.191L8.41128 27.2901L8.55003 27.31C8.78292 27.3199 9.12483 27.186 9.769 26.9035C10.3587 26.6407 11.9642 25.674 12.648 25.2625L12.9403 25.089C13.0593 25.0989 13.193 24.9948 13.312 24.9055C13.4507 24.7965 13.748 24.613 13.9314 24.5337C13.9363 24.5337 14.0404 24.4742 14.1395 24.4197C14.1395 24.4494 14.1395 24.499 14.1395 24.499C14.1692 26.5961 14.2881 28.123 14.521 29.298V29.3178L14.5458 29.3674C14.6598 29.531 14.7886 30.0317 14.9026 30.468L15.1652 31.3455L15.2395 31.4297C15.3882 31.5289 15.8441 31.7074 16.1463 31.6677L16.2207 31.6578L16.2702 31.5537C16.295 31.4248 16.3049 31.2959 16.3049 31.1521C16.3049 30.9935 16.295 30.815 16.2801 30.6018L16.2603 30.2845C16.1662 28.822 16.0671 26.7051 16.0671 25.2972V25.1832C16.3148 25.3368 17.405 26.026 17.405 26.026C19.2582 27.2257 22.0529 29.0451 23.7426 29.526C23.8318 29.5508 23.921 29.531 23.9854 29.4715L24.2431 29.3029L24.2927 29.2831C24.3918 29.2385 24.4562 29.0749 24.4661 28.8964C25.8932 28.827 27.8802 28.2767 28.9406 26.9382C29.3519 26.4176 29.5353 25.783 29.5353 25.2427C29.5353 24.7965 29.4114 24.4147 29.1884 24.2016" fill="#FCAF16"/>
<path d="M66.2038 27.6818H59.9949V25.4905H66.2038V27.6818ZM67.507 24.3552H58.6917V28.822H67.507V24.3552Z" fill="#776C61"/>
<path d="M67.4524 21.9408V18.4556H58.7511V19.5809H66.1393V21.9457H57.7551V23.076H68.4435V21.9408H67.4524Z" fill="#776C61"/>
<path d="M79.9891 23.8347V22.7044H69.3107V23.8347H71.7536V25.0592C70.8022 25.4559 70.2026 26.0904 70.2026 26.9778C70.2026 28.5791 72.1946 29.3872 74.6474 29.3872C77.1002 29.3872 79.0922 28.5791 79.0922 26.9778C79.0922 26.1003 78.4976 25.4658 77.566 25.0692V23.8298H79.9941L79.9891 23.8347ZM73.0617 23.8347H76.2578V24.7073C75.7574 24.623 75.2173 24.5784 74.6474 24.5784C74.0776 24.5784 73.5573 24.623 73.0617 24.7023V23.8347ZM77.7147 26.9828C77.7147 27.8702 76.3371 28.2668 74.6425 28.2668C72.9478 28.2668 71.5702 27.8702 71.5702 26.9828C71.5702 26.0954 72.9428 25.7037 74.6425 25.7037C76.3421 25.7037 77.7147 26.1053 77.7147 26.9828ZM74.6524 22.2136C76.8326 22.2136 78.6017 21.4699 78.6017 19.9975C78.6017 18.5251 76.8326 17.7815 74.6524 17.7815C72.4721 17.7815 70.7031 18.5103 70.7031 19.9975C70.7031 21.4848 72.4721 22.2136 74.6524 22.2136ZM74.6474 18.887C76.0695 18.887 77.2241 19.2341 77.2241 19.9975C77.2241 20.761 76.0695 21.108 74.6474 21.108C73.2253 21.108 72.0707 20.766 72.0707 19.9975C72.0707 19.2291 73.2203 18.887 74.6474 18.887Z" fill="#776C61"/>
<path d="M89.2899 26.7743V18.6389H81.0048V19.7643H87.9767V26.7743H80.2714V27.8948H90.271V26.7743H89.2899Z" fill="#776C61"/>
<path d="M91.3215 23.4532V24.5736H96.0488V25.5006H97.3817V24.5736H102V23.4532H91.3215ZM99.8246 25.8279H93.482V25.0644H92.2036V28.8074H101.113V25.0644H99.8246V25.8279ZM99.8296 27.7018H93.482V26.9136H99.8296V27.7018ZM101.054 21.8122H93.5018V21.2074H101.024V18.4658H92.2234V19.5664H99.7454V20.1365H92.2234V22.9078H101.049V21.8072L101.054 21.8122Z" fill="#776C61"/>
<path d="M34.4359 18.4504H36.0959V23.1155L41.7002 18.4504H44.0539L38.1374 23.1602L44.5495 28.8763H42.1908L36.0959 23.2891V28.8763H34.4359V18.4504Z" fill="#776C61"/>
<path d="M45.7089 18.4504H50.8326C53.2705 18.4504 54.544 19.2585 54.544 21.0284C54.544 22.2876 53.667 23.1552 52.4975 23.3882V23.4328C54.1724 23.6311 54.9652 24.7317 54.9652 25.9761C54.9652 27.5328 53.8255 28.8812 50.9961 28.8812H45.7089V18.4504ZM47.3689 22.8429H50.7484C52.007 22.8429 52.9336 22.3669 52.9336 21.2564C52.9336 20.2848 52.4777 19.6403 50.5601 19.6403H47.3689V22.8429ZM47.3689 27.6964H50.6443C52.6809 27.6964 53.216 26.9031 53.216 25.8918C53.216 24.6921 52.3885 24.0277 50.5551 24.0277H47.364V27.6964H47.3689Z" fill="#776C61"/>
</svg>
