<svg width="110" height="48" viewBox="0 0 110 48" fill="none" xmlns="http://www.w3.org/2000/svg">
<rect width="110" height="48" fill="white"/>
<path d="M51.2035 22.9181V24.0948H41.2154V22.9181H51.2035ZM49.0463 22.1612V19.9575H42.0187V18.7834H50.4002V22.1639H49.0489L49.0463 22.1612ZM50.3975 25.21V29.3125H42.016V25.21H50.3975ZM49.033 26.3359H43.3699V28.1358H49.033V26.3359Z" fill="#575756"/>
<path d="M52.4032 24.3142V23.2124H62.3913V24.3142H60.2367V25.368H58.9945V24.3142H55.8026V25.368H54.5471V24.3142H52.4032ZM60.016 27.5128C60.016 27.8471 59.9468 28.1654 59.8085 28.4676C59.6702 28.7698 59.4786 29.0319 59.2366 29.2512C59.0078 29.4785 58.7339 29.6604 58.4147 29.7967C58.0955 29.9331 57.755 30 57.3986 30C57.0421 30 56.7043 29.9331 56.3878 29.7967C56.0713 29.663 55.7946 29.4812 55.5579 29.2512C55.3212 29.0319 55.135 28.7698 54.9966 28.4676C54.8583 28.1654 54.7892 27.8471 54.7892 27.5128C54.7892 27.1785 54.8583 26.8603 54.9966 26.5581C55.135 26.2559 55.3212 25.9938 55.5579 25.7745C55.792 25.5471 56.0686 25.3653 56.3878 25.2289C56.7043 25.0952 57.0395 25.0256 57.3986 25.0256C57.7577 25.0256 58.0955 25.0925 58.4147 25.2289C58.7339 25.3626 59.0105 25.5445 59.2366 25.7745C59.4813 25.9938 59.6702 26.2559 59.8085 26.5581C59.9468 26.8603 60.016 27.1785 60.016 27.5128ZM59.9548 20.3856C59.9548 20.7118 59.8856 21.0221 59.7473 21.3109C59.609 21.5997 59.4228 21.8565 59.1861 22.0758C58.9679 22.2871 58.6993 22.4609 58.3881 22.5893C58.0742 22.7203 57.7444 22.7845 57.3959 22.7845C57.0475 22.7845 56.7176 22.7203 56.4091 22.5893C56.1005 22.4582 55.8372 22.2871 55.6164 22.0758C55.3797 21.8565 55.1935 21.5997 55.0552 21.3109C54.9168 21.0221 54.8477 20.7145 54.8477 20.3856C54.8477 20.0566 54.9168 19.7624 55.0552 19.4736C55.1935 19.1848 55.3797 18.928 55.6164 18.7087C55.8345 18.4974 56.0979 18.3263 56.4091 18.1952C56.7176 18.0642 57.0448 18 57.3959 18C57.747 18 58.0742 18.0642 58.3881 18.1952C58.6993 18.3263 58.9679 18.4974 59.1861 18.7087C59.4201 18.928 59.609 19.1848 59.7473 19.4736C59.8856 19.7624 59.9548 20.0673 59.9548 20.3856ZM58.7019 27.4994C58.7019 27.1411 58.5743 26.8308 58.3242 26.5741C58.0715 26.3174 57.7683 26.189 57.4119 26.189C57.0554 26.189 56.7469 26.3174 56.4862 26.5741C56.2255 26.8308 56.0979 27.1411 56.0979 27.4994C56.0979 27.8578 56.2282 28.168 56.4862 28.4301C56.7469 28.6895 57.0528 28.8206 57.4119 28.8206C57.771 28.8206 58.0742 28.6895 58.3242 28.4301C58.5743 28.168 58.7019 27.8578 58.7019 27.4994ZM58.6408 20.3963C58.6408 20.062 58.5184 19.7731 58.2764 19.5271C58.0316 19.281 57.739 19.158 57.3986 19.158C57.0581 19.158 56.7682 19.281 56.5261 19.5271C56.2867 19.7731 56.167 20.062 56.167 20.3963C56.167 20.7306 56.2867 21.0328 56.5261 21.2735C56.7655 21.5142 57.0554 21.6345 57.3986 21.6345C57.7417 21.6345 58.0316 21.5142 58.2764 21.2735C58.5211 21.0328 58.6408 20.7413 58.6408 20.3963Z" fill="#575756"/>
<path d="M63.261 26.1784V24.9776H70.5333V26.1784H67.4877V29.131H66.1604V26.1784H63.261ZM69.7034 21.5223C69.7034 21.8994 69.629 22.2524 69.4773 22.5867C69.3284 22.921 69.1182 23.2125 68.8496 23.4559C68.5809 23.71 68.2724 23.9079 67.9239 24.055C67.5755 24.202 67.2004 24.2743 66.8041 24.2743C66.4078 24.2743 66.0327 24.1994 65.6843 24.055C65.3358 23.9079 65.0273 23.7073 64.7586 23.4559C64.4899 23.2098 64.2798 22.921 64.1255 22.5867C63.9713 22.2524 63.8941 21.8967 63.8941 21.5223C63.8941 21.1479 63.9713 20.7922 64.1255 20.4579C64.2798 20.1236 64.4899 19.8294 64.7586 19.5754C65.0273 19.3213 65.3358 19.1207 65.6843 18.9763C66.0327 18.8292 66.4051 18.757 66.8041 18.757C67.2031 18.757 67.5755 18.8292 67.9239 18.9763C68.2724 19.1234 68.5809 19.324 68.8496 19.5754C69.1182 19.8294 69.3257 20.1236 69.4773 20.4579C69.6263 20.7922 69.7034 21.1479 69.7034 21.5223ZM68.4134 21.5223C68.4134 21.081 68.2538 20.7066 67.9372 20.3964C67.6207 20.0862 67.243 19.931 66.8041 19.931C66.3652 19.931 65.9901 20.0862 65.6763 20.3964C65.3624 20.7066 65.2081 21.081 65.2081 21.5223C65.2081 21.9636 65.3624 22.33 65.6763 22.6429C65.9901 22.9558 66.3652 23.1136 66.8041 23.1136C67.243 23.1136 67.6207 22.9558 67.9372 22.6429C68.2538 22.3273 68.4134 21.9556 68.4134 21.5223ZM71.3473 18.5591H72.6879V29.484H71.3473V18.5591Z" fill="#575756"/>
<path d="M78.8857 24.8548V26.323H77.5451V24.8548H74.5845V23.7289H81.8329V24.8548H78.8857ZM76.6194 25.8095V28.0881H84.3784V29.2648H75.2681V25.8122H76.6194V25.8095ZM80.7237 20.8753C80.7237 21.2096 80.6519 21.5252 80.5109 21.8247C80.3673 22.1242 80.1784 22.3863 79.9443 22.6136C79.7102 22.8329 79.4336 23.0094 79.1171 23.1405C78.8005 23.2715 78.4627 23.3357 78.1063 23.3357C77.7499 23.3357 77.4121 23.2715 77.0955 23.1405C76.779 23.0094 76.4997 22.8356 76.255 22.6136C76.0262 22.3863 75.8427 22.1215 75.7017 21.8247C75.5581 21.5252 75.4889 21.2096 75.4889 20.8753C75.4889 20.541 75.5607 20.2254 75.7017 19.9312C75.8427 19.637 76.0289 19.3749 76.255 19.1476C76.4997 18.9203 76.779 18.7411 77.0955 18.6154C77.4121 18.4897 77.7499 18.4255 78.1063 18.4255C78.4627 18.4255 78.8005 18.4897 79.1171 18.6154C79.4336 18.7411 79.7102 18.9203 79.9443 19.1476C80.1784 19.3776 80.3699 19.637 80.5109 19.9312C80.6519 20.2254 80.7237 20.541 80.7237 20.8753ZM79.4469 20.886C79.4469 20.5196 79.3166 20.2067 79.0586 19.9499C78.7979 19.6932 78.4814 19.5648 78.109 19.5648C77.7366 19.5648 77.42 19.6932 77.1594 19.9499C76.9013 20.2067 76.7683 20.5196 76.7683 20.886C76.7683 21.2524 76.8987 21.5653 77.1594 21.822C77.42 22.0788 77.7366 22.2071 78.109 22.2071C78.4814 22.2071 78.8005 22.0788 79.0586 21.822C79.3166 21.5653 79.4469 21.2524 79.4469 20.886ZM82.7479 22.7714H81.1998V21.6562H82.7479V18.5593H84.0885V26.446H82.7479V22.7714Z" fill="#575756"/>
<path d="M92.978 28.3928H85.852V27.2053H88.7141V25.8467C88.5838 25.8147 88.4614 25.7719 88.3497 25.7237C88.0252 25.5927 87.7406 25.4188 87.4985 25.1969C87.2538 24.9695 87.0623 24.7048 86.9266 24.4079C86.7883 24.1084 86.7191 23.7928 86.7191 23.4585C86.7191 23.1242 86.7883 22.8086 86.9266 22.5145C87.0649 22.2203 87.2564 21.9582 87.4985 21.7309C87.7406 21.5035 88.0225 21.3243 88.3444 21.1986C88.6662 21.073 89.0093 21.0088 89.3738 21.0088C89.7382 21.0088 90.0813 21.073 90.3978 21.1986C90.7144 21.3243 90.9883 21.5035 91.2251 21.7309C91.4698 21.9609 91.6613 22.2203 91.8023 22.5145C91.9459 22.8086 92.0151 23.1242 92.0151 23.4585C92.0151 23.7928 91.9433 24.1084 91.8023 24.4079C91.6587 24.7075 91.4671 24.9695 91.2251 25.1969C90.9883 25.4162 90.7144 25.5927 90.3978 25.7237C90.2675 25.7799 90.1318 25.8253 89.9962 25.8574V27.2053H92.9806V28.3928H92.978ZM88.6157 19.6502V18.4868H90.076V19.6502H92.72V20.8135H85.9717V19.6502H88.6157ZM90.6984 23.4451C90.6984 23.0868 90.5681 22.7792 90.3074 22.5198C90.0467 22.2631 89.7302 22.1347 89.3578 22.1347C88.9854 22.1347 88.6689 22.2631 88.4082 22.5198C88.1475 22.7765 88.0199 23.0868 88.0199 23.4451C88.0199 23.8035 88.1502 24.1164 88.4082 24.3758C88.6689 24.6379 88.9854 24.769 89.3578 24.769C89.7302 24.769 90.0467 24.6379 90.3074 24.3758C90.5681 24.1164 90.6984 23.8035 90.6984 23.4451ZM93.9382 18.559H95.2788V29.4839H93.9382V18.559Z" fill="#575756"/>
<path d="M36.6023 24.001C36.6023 30.0764 31.7033 35 25.6628 35C19.6222 35 14.7212 30.0744 14.7212 24.001C14.7212 17.9277 19.6202 13 25.6628 13C31.7054 13 36.6023 17.9256 36.6023 24.001Z" fill="white"/>
<path d="M30.8538 23.3148C29.0955 22.1137 26.8431 22.6024 25.6627 24.4113C24.6744 25.9204 23.1836 26.1092 22.6057 26.1092C20.7249 26.1092 19.4364 24.7788 19.0565 23.4011C19.0525 23.3867 19.0504 23.3764 19.0463 23.3621C19.0422 23.3477 19.0382 23.3313 19.0341 23.3148C18.883 22.74 18.8462 22.4669 18.8462 21.855C18.8462 18.5617 22.2055 14.8967 27.0452 14.8967C31.885 14.8967 34.8359 18.689 35.5669 20.7976C35.5547 20.7627 35.5424 20.7237 35.5302 20.6868C34.1211 16.5639 30.233 13.5991 25.6566 13.5991C19.8958 13.5991 15.2235 18.2948 15.2235 24.091C15.2235 29.2691 18.9381 33.702 24.0903 33.702C28.2011 33.702 30.962 31.3839 32.2301 28.1932C32.9245 26.448 32.4323 24.3948 30.8538 23.3169V23.3148Z" fill="#003763"/>
<path d="M35.6303 21.0032C35.0218 18.9459 32.1628 14.897 27.0453 14.897C22.2055 14.897 18.8463 18.5619 18.8463 21.8553C18.8463 22.4671 18.883 22.7402 19.0341 23.3151C18.9708 23.0646 18.9381 22.812 18.9381 22.5677C18.9381 19.1389 22.3525 16.7633 25.8629 16.7633C30.6149 16.7633 34.4663 20.6357 34.4663 25.4134C34.4663 29.1585 32.3241 32.3984 29.2099 33.9568C33.2247 32.499 36.0898 28.6329 36.0898 24.0932C36.0898 23.0194 35.9468 22.0708 35.6303 21.0073V21.0032Z" fill="#E4022D"/>
</svg>
