<svg width="106" height="48" viewBox="0 0 106 48" fill="none" xmlns="http://www.w3.org/2000/svg">
<path d="M49.2035 22.9181V24.0948H39.2154V22.9181H49.2035ZM47.0462 22.1612V19.9575H40.0187V18.7834H48.4002V22.1639H47.0489L47.0462 22.1612ZM48.3975 25.21V29.3125H40.016V25.21H48.3975ZM47.033 26.3359H41.3699V28.1358H47.033V26.3359Z" fill="#575756"/>
<path d="M50.4032 24.3142V23.2124H60.3913V24.3142H58.2367V25.368H56.9946V24.3142H53.8026V25.368H52.5471V24.3142H50.4032ZM58.016 27.5128C58.016 27.8471 57.9468 28.1654 57.8085 28.4676C57.6702 28.7698 57.4787 29.0319 57.2366 29.2512C57.0079 29.4785 56.7339 29.6604 56.4147 29.7967C56.0955 29.9331 55.755 30 55.3986 30C55.0422 30 54.7043 29.9331 54.3878 29.7967C54.0713 29.663 53.7946 29.4812 53.5579 29.2512C53.3212 29.0319 53.135 28.7698 52.9967 28.4676C52.8583 28.1654 52.7892 27.8471 52.7892 27.5128C52.7892 27.1785 52.8583 26.8603 52.9967 26.5581C53.135 26.2559 53.3212 25.9938 53.5579 25.7745C53.792 25.5471 54.0686 25.3653 54.3878 25.2289C54.7043 25.0952 55.0395 25.0256 55.3986 25.0256C55.7577 25.0256 56.0955 25.0925 56.4147 25.2289C56.7339 25.3626 57.0105 25.5445 57.2366 25.7745C57.4813 25.9938 57.6702 26.2559 57.8085 26.5581C57.9468 26.8603 58.016 27.1785 58.016 27.5128ZM57.9548 20.3856C57.9548 20.7118 57.8856 21.0221 57.7473 21.3109C57.609 21.5997 57.4228 21.8565 57.1861 22.0758C56.968 22.2871 56.6993 22.4609 56.3881 22.5893C56.0742 22.7203 55.7444 22.7845 55.3959 22.7845C55.0475 22.7845 54.7176 22.7203 54.4091 22.5893C54.1005 22.4582 53.8372 22.2871 53.6164 22.0758C53.3797 21.8565 53.1935 21.5997 53.0552 21.3109C52.9169 21.0221 52.8477 20.7145 52.8477 20.3856C52.8477 20.0566 52.9169 19.7624 53.0552 19.4736C53.1935 19.1848 53.3797 18.928 53.6164 18.7087C53.8345 18.4974 54.0979 18.3263 54.4091 18.1952C54.7176 18.0642 55.0448 18 55.3959 18C55.747 18 56.0742 18.0642 56.3881 18.1952C56.6993 18.3263 56.968 18.4974 57.1861 18.7087C57.4201 18.928 57.609 19.1848 57.7473 19.4736C57.8856 19.7624 57.9548 20.0673 57.9548 20.3856ZM56.702 27.4994C56.702 27.1411 56.5743 26.8308 56.3242 26.5741C56.0716 26.3174 55.7683 26.189 55.4119 26.189C55.0555 26.189 54.7469 26.3174 54.4862 26.5741C54.2255 26.8308 54.0979 27.1411 54.0979 27.4994C54.0979 27.8578 54.2282 28.168 54.4862 28.4301C54.7469 28.6895 55.0528 28.8206 55.4119 28.8206C55.771 28.8206 56.0742 28.6895 56.3242 28.4301C56.5743 28.168 56.702 27.8578 56.702 27.4994ZM56.6408 20.3963C56.6408 20.062 56.5184 19.7731 56.2764 19.5271C56.0317 19.281 55.7391 19.158 55.3986 19.158C55.0581 19.158 54.7682 19.281 54.5261 19.5271C54.2867 19.7731 54.167 20.062 54.167 20.3963C54.167 20.7306 54.2867 21.0328 54.5261 21.2735C54.7655 21.5142 55.0555 21.6345 55.3986 21.6345C55.7417 21.6345 56.0317 21.5142 56.2764 21.2735C56.5211 21.0328 56.6408 20.7413 56.6408 20.3963Z" fill="#575756"/>
<path d="M61.261 26.1784V24.9776H68.5333V26.1784H65.4877V29.131H64.1604V26.1784H61.261ZM67.7034 21.5223C67.7034 21.8994 67.6289 22.2524 67.4773 22.5867C67.3284 22.921 67.1182 23.2125 66.8496 23.4559C66.5809 23.71 66.2724 23.9079 65.9239 24.055C65.5755 24.202 65.2004 24.2743 64.8041 24.2743C64.4077 24.2743 64.0327 24.1994 63.6842 24.055C63.3358 23.9079 63.0272 23.7073 62.7586 23.4559C62.4899 23.2098 62.2798 22.921 62.1255 22.5867C61.9712 22.2524 61.8941 21.8967 61.8941 21.5223C61.8941 21.1479 61.9712 20.7922 62.1255 20.4579C62.2798 20.1236 62.4899 19.8294 62.7586 19.5754C63.0272 19.3213 63.3358 19.1207 63.6842 18.9763C64.0327 18.8292 64.4051 18.757 64.8041 18.757C65.2031 18.757 65.5755 18.8292 65.9239 18.9763C66.2724 19.1234 66.5809 19.324 66.8496 19.5754C67.1182 19.8294 67.3257 20.1236 67.4773 20.4579C67.6263 20.7922 67.7034 21.1479 67.7034 21.5223ZM66.4133 21.5223C66.4133 21.081 66.2537 20.7066 65.9372 20.3964C65.6207 20.0862 65.243 19.931 64.8041 19.931C64.3652 19.931 63.9901 20.0862 63.6763 20.3964C63.3624 20.7066 63.2081 21.081 63.2081 21.5223C63.2081 21.9636 63.3624 22.33 63.6763 22.6429C63.9901 22.9558 64.3652 23.1136 64.8041 23.1136C65.243 23.1136 65.6207 22.9558 65.9372 22.6429C66.2537 22.3273 66.4133 21.9556 66.4133 21.5223ZM69.3473 18.5591H70.6879V29.484H69.3473V18.5591Z" fill="#575756"/>
<path d="M76.8856 24.8548V26.323H75.545V24.8548H72.5845V23.7289H79.8328V24.8548H76.8856ZM74.6194 25.8095V28.0881H82.3784V29.2648H73.2681V25.8122H74.6194V25.8095ZM78.7236 20.8753C78.7236 21.2096 78.6518 21.5252 78.5109 21.8247C78.3672 22.1242 78.1784 22.3863 77.9443 22.6136C77.7102 22.8329 77.4336 23.0094 77.117 23.1405C76.8005 23.2715 76.4627 23.3357 76.1063 23.3357C75.7498 23.3357 75.412 23.2715 75.0955 23.1405C74.779 23.0094 74.4997 22.8356 74.2549 22.6136C74.0262 22.3863 73.8427 22.1215 73.7017 21.8247C73.558 21.5252 73.4889 21.2096 73.4889 20.8753C73.4889 20.541 73.5607 20.2254 73.7017 19.9312C73.8427 19.637 74.0289 19.3749 74.2549 19.1476C74.4997 18.9203 74.779 18.7411 75.0955 18.6154C75.412 18.4897 75.7498 18.4255 76.1063 18.4255C76.4627 18.4255 76.8005 18.4897 77.117 18.6154C77.4336 18.7411 77.7102 18.9203 77.9443 19.1476C78.1784 19.3776 78.3699 19.637 78.5109 19.9312C78.6518 20.2254 78.7236 20.541 78.7236 20.8753ZM77.4469 20.886C77.4469 20.5196 77.3165 20.2067 77.0585 19.9499C76.7979 19.6932 76.4813 19.5648 76.1089 19.5648C75.7365 19.5648 75.42 19.6932 75.1593 19.9499C74.9013 20.2067 74.7683 20.5196 74.7683 20.886C74.7683 21.2524 74.8987 21.5653 75.1593 21.822C75.42 22.0788 75.7365 22.2071 76.1089 22.2071C76.4813 22.2071 76.8005 22.0788 77.0585 21.822C77.3165 21.5653 77.4469 21.2524 77.4469 20.886ZM80.7479 22.7714H79.1998V21.6562H80.7479V18.5593H82.0885V26.446H80.7479V22.7714Z" fill="#575756"/>
<path d="M90.978 28.3928H83.852V27.2053H86.7141V25.8467C86.5838 25.8147 86.4614 25.7719 86.3497 25.7237C86.0252 25.5927 85.7406 25.4188 85.4985 25.1969C85.2538 24.9695 85.0623 24.7048 84.9266 24.4079C84.7883 24.1084 84.7191 23.7928 84.7191 23.4585C84.7191 23.1242 84.7883 22.8086 84.9266 22.5145C85.0649 22.2203 85.2564 21.9582 85.4985 21.7309C85.7406 21.5035 86.0225 21.3243 86.3444 21.1986C86.6662 21.073 87.0093 21.0088 87.3738 21.0088C87.7382 21.0088 88.0813 21.073 88.3978 21.1986C88.7144 21.3243 88.9883 21.5035 89.2251 21.7309C89.4698 21.9609 89.6613 22.2203 89.8023 22.5145C89.9459 22.8086 90.0151 23.1242 90.0151 23.4585C90.0151 23.7928 89.9433 24.1084 89.8023 24.4079C89.6587 24.7075 89.4671 24.9695 89.2251 25.1969C88.9883 25.4162 88.7144 25.5927 88.3978 25.7237C88.2675 25.7799 88.1318 25.8253 87.9962 25.8574V27.2053H90.9806V28.3928H90.978ZM86.6157 19.6502V18.4868H88.076V19.6502H90.72V20.8135H83.9717V19.6502H86.6157ZM88.6984 23.4451C88.6984 23.0868 88.5681 22.7792 88.3074 22.5198C88.0467 22.2631 87.7302 22.1347 87.3578 22.1347C86.9854 22.1347 86.6689 22.2631 86.4082 22.5198C86.1475 22.7765 86.0199 23.0868 86.0199 23.4451C86.0199 23.8035 86.1502 24.1164 86.4082 24.3758C86.6689 24.6379 86.9854 24.769 87.3578 24.769C87.7302 24.769 88.0467 24.6379 88.3074 24.3758C88.5681 24.1164 88.6984 23.8035 88.6984 23.4451ZM91.9382 18.559H93.2788V29.4839H91.9382V18.559Z" fill="#575756"/>
<path d="M34.6023 24.001C34.6023 30.0764 29.7033 35 23.6628 35C17.6222 35 12.7212 30.0744 12.7212 24.001C12.7212 17.9277 17.6202 13 23.6628 13C29.7054 13 34.6023 17.9256 34.6023 24.001Z" fill="white"/>
<path d="M28.8538 23.3148C27.0955 22.1137 24.8431 22.6024 23.6627 24.4113C22.6744 25.9204 21.1836 26.1092 20.6057 26.1092C18.7249 26.1092 17.4364 24.7788 17.0565 23.4011C17.0525 23.3867 17.0504 23.3764 17.0463 23.3621C17.0422 23.3477 17.0382 23.3313 17.0341 23.3148C16.883 22.74 16.8462 22.4669 16.8462 21.855C16.8462 18.5617 20.2055 14.8967 25.0452 14.8967C29.885 14.8967 32.8359 18.689 33.5669 20.7976C33.5547 20.7627 33.5424 20.7237 33.5302 20.6868C32.1211 16.5639 28.233 13.5991 23.6566 13.5991C17.8958 13.5991 13.2235 18.2948 13.2235 24.091C13.2235 29.2691 16.9381 33.702 22.0903 33.702C26.2011 33.702 28.962 31.3839 30.2301 28.1932C30.9245 26.448 30.4323 24.3948 28.8538 23.3169V23.3148Z" fill="#003763"/>
<path d="M33.6303 21.0032C33.0217 18.9459 30.1628 14.897 25.0453 14.897C20.2055 14.897 16.8462 18.5619 16.8462 21.8553C16.8462 22.4671 16.883 22.7402 17.0341 23.3151C16.9708 23.0646 16.9381 22.812 16.9381 22.5677C16.9381 19.1389 20.3525 16.7633 23.8629 16.7633C28.6149 16.7633 32.4663 20.6357 32.4663 25.4134C32.4663 29.1585 30.3241 32.3984 27.2099 33.9568C31.2247 32.499 34.0898 28.6329 34.0898 24.0932C34.0898 23.0194 33.9468 22.0708 33.6303 21.0073V21.0032Z" fill="#E4022D"/>
</svg>
