<svg width="110" height="48" viewBox="0 0 110 48" fill="none" xmlns="http://www.w3.org/2000/svg">
<rect width="110" height="48" fill="white"/>
<path d="M35.7882 14H16V34H35.7882V14Z" fill="#B2D234"/>
<path d="M53.3856 18.1035H50.2054V30.3027H53.3856V18.1035Z" fill="#00367B"/>
<path d="M62.7894 23.9308H71.0889V27.6549H62.7894V23.9308ZM74.2824 28.0969V23.5021C74.2824 21.7652 72.8557 21.3008 72.1049 21.3008H62.7938V18.1125H59.6135V27.8781C59.6135 27.9138 59.6003 28.789 60.2717 29.4812C60.7885 30.0215 61.5659 30.2938 62.5729 30.2938H72.1004C72.8557 30.2938 74.2824 29.8294 74.2824 28.1014" fill="#00367B"/>
<path d="M90.8242 27.6549H82.5246V20.7471H90.8242V27.6549ZM91.045 18.1082H82.2994C81.2923 18.1082 80.5193 18.3805 79.9981 18.9208C79.3311 19.613 79.3444 20.4837 79.3444 20.5239V27.8648C79.3444 27.8871 79.3841 30.2939 82.2949 30.2939H91.0495C93.9559 30.2939 94 27.8916 94 27.8693V20.5149C94 20.4837 94.0133 19.613 93.3463 18.9208C92.8295 18.3805 92.0521 18.1082 91.045 18.1082Z" fill="#00367B"/>
<path d="M28.2218 18.8672V20.0505H30.8013V30.3028H33.9816V16.9695L28.2218 18.8672Z" fill="#00367B"/>
<path d="M39.6663 24.029L45.8855 18.1482H41.7998L35.7882 24.029L41.8572 30.2402H45.9252L39.6663 24.029Z" fill="#00367B"/>
</svg>
