<svg width="106" height="48" viewBox="0 0 106 48" fill="none" xmlns="http://www.w3.org/2000/svg">
<path d="M33.7882 14H14V34H33.7882V14Z" fill="#B2D234"/>
<path d="M51.3856 18.1035H48.2054V30.3027H51.3856V18.1035Z" fill="#00367B"/>
<path d="M60.7894 23.9308H69.0889V27.6549H60.7894V23.9308ZM72.2824 28.0969V23.5021C72.2824 21.7652 70.8557 21.3008 70.1048 21.3008H60.7938V18.1125H57.6135V27.8781C57.6135 27.9138 57.6003 28.789 58.2717 29.4812C58.7885 30.0215 59.5659 30.2938 60.5729 30.2938H70.1004C70.8557 30.2938 72.2824 29.8294 72.2824 28.1014" fill="#00367B"/>
<path d="M88.8242 27.6549H80.5246V20.7471H88.8242V27.6549ZM89.045 18.1082H80.2993C79.2923 18.1082 78.5193 18.3805 77.9981 18.9208C77.3311 19.613 77.3444 20.4837 77.3444 20.5239V27.8648C77.3444 27.8871 77.3841 30.2939 80.2949 30.2939H89.0494C91.9558 30.2939 92 27.8916 92 27.8693V20.5149C92 20.4837 92.0133 19.613 91.3463 18.9208C90.8295 18.3805 90.0521 18.1082 89.045 18.1082Z" fill="#00367B"/>
<path d="M26.2218 18.8672V20.0505H28.8014V30.3028H31.9816V16.9695L26.2218 18.8672Z" fill="#00367B"/>
<path d="M37.6663 24.029L43.8855 18.1482H39.7998L33.7882 24.029L39.8572 30.2402H43.9252L37.6663 24.029Z" fill="#00367B"/>
</svg>
