<svg width="106" height="48" viewBox="0 0 106 48" fill="none" xmlns="http://www.w3.org/2000/svg">
<g clip-path="url(#clip0_9_27454)">
<path d="M74.7857 20.292H78.5144V26.3328H81.874L86.5291 32.9999H82.0229L78.5144 27.9537V32.9999H74.7857V20.292Z" fill="#C8C8C8"/>
<path d="M90 15L87.7159 26.8282L86.6146 24.8279C86.6146 24.8279 85.8813 23.5464 85.2775 22.9662L80.4812 28.2807L77.671 25.9285L82.4686 20.6128C81.7871 20.1161 80.3672 19.597 80.3672 19.597L78.1568 18.8246L90 15Z" fill="#E4007F"/>
<path d="M24.0289 19.2552C24.0263 18.7935 23.9356 18.4341 23.727 18.0298H26.0526C26.0811 18.0298 26.1045 18.0498 26.1045 18.066V29.989C26.1045 30.004 26.0824 30.0202 26.0526 30.0202H24.0807C24.0496 30.0202 24.0289 30.004 24.0289 29.989V19.2552Z" fill="#003A70"/>
<path d="M16.5312 18.7683V20.2158H20.0734C20.3066 20.2158 20.2898 20.403 20.2898 20.4704C20.2898 21.0731 20.2211 21.6346 20.1019 22.1575H16.4327V23.6049H19.607C18.3969 26.2329 16 27.4857 16 27.4857L17.5962 28.4865C21.9987 25.8473 22.3912 22.261 22.3912 19.5495V18.7671H16.5312V18.7683Z" fill="#003A70"/>
<path d="M38.3972 23.2981H27.4169C27.3858 23.2981 27.3625 23.3143 27.3625 23.3305V24.677C27.3625 24.6919 27.3845 24.7081 27.4169 24.7081H31.6976V25.7626H28.3212C28.5389 26.1744 28.6309 26.5387 28.6309 27.0054V29.7569C28.6309 29.7756 28.6555 29.7906 28.6866 29.7906H37.099C37.1288 29.7906 37.1534 29.7756 37.1534 29.7569V25.795C37.1534 25.7775 37.1288 25.7626 37.099 25.7626H34.0828V24.7081H38.3972C38.4257 24.7081 38.4503 24.6932 38.4503 24.677V23.3305C38.4503 23.3131 38.4257 23.2981 38.3972 23.2981ZM35.083 27.1539V28.4167H30.6533V27.1539H35.083Z" fill="#003A70"/>
<path d="M36.9072 20.2333C36.9072 21.682 35.0986 22.8562 32.8688 22.8562C30.6391 22.8562 28.8304 21.682 28.8304 20.2333C28.8304 18.7846 30.6378 17.6104 32.8688 17.6104C35.0999 17.6104 36.9072 18.7846 36.9072 20.2333ZM32.8688 19.0329C31.9243 19.0329 31.1599 19.5707 31.1599 20.2333C31.1599 20.8959 31.9256 21.4325 32.8688 21.4325C33.812 21.4325 34.579 20.8959 34.579 20.2333C34.579 19.5707 33.8133 19.0329 32.8688 19.0329Z" fill="#003A70"/>
<path d="M59.6439 20.2172H60.749V18.8209C60.749 18.7935 60.7257 18.771 60.6972 18.771H53.2501C53.2216 18.771 53.1982 18.7935 53.1982 18.8209V20.2172H54.3034V25.6091L53.2436 25.6204C53.2151 25.6204 53.1684 25.6204 53.1399 25.6204H52.9339V27.0167C52.9339 27.0441 52.9572 27.0666 52.9858 27.0666H53.1464C53.1749 27.0641 53.2216 27.0641 53.2501 27.0641L56.4567 27.0267C56.4852 27.0267 56.5085 27.0267 56.5098 27.0267C56.7987 27.0267 57.1524 27.0204 57.558 27.0079C57.9764 26.9942 58.3949 26.9792 58.803 26.963C59.2254 26.9368 59.6309 26.9119 60.0248 26.8857C60.394 26.8619 60.9615 26.817 60.9615 26.817C60.99 26.8145 61.0133 26.7908 61.0133 26.7634V25.3795C61.0133 25.3795 60.9343 25.3883 60.898 25.392C60.6532 25.4207 60.4109 25.4432 60.1777 25.4619C60.0002 25.4756 59.6426 25.4881 59.6426 25.4881V20.2185L59.6439 20.2172ZM57.5307 25.5754H57.5282L57.269 25.5817C57.2405 25.5817 57.1939 25.5817 57.1654 25.5817H56.6005C56.6005 25.5817 56.5759 25.5817 56.5474 25.5829H56.3854V20.216H57.58V25.5729H57.5307V25.5754Z" fill="#003A70"/>
<path d="M63.9557 18.0298C63.9557 18.0298 61.6819 18.0298 61.6443 18.0298C61.8529 18.4341 61.9436 18.7935 61.9462 19.2552V29.9691C61.9462 29.9965 61.9695 30.019 61.998 30.019H63.9557C63.9842 30.019 64.0075 29.9965 64.0075 29.9691V18.0797C64.0075 18.0522 63.9842 18.0298 63.9557 18.0298Z" fill="#003A70"/>
<path d="M72.2424 22.3686C71.8667 22.4073 71.4858 22.4435 71.1113 22.4772C70.7149 22.5021 70.3249 22.5233 69.9582 22.5396C69.589 22.5558 69.0137 22.5645 69.0137 22.5645C68.9852 22.5645 68.9386 22.5645 68.9101 22.5645H67.7855C67.757 22.5645 67.7337 22.5421 67.7337 22.5146L67.7363 21.8707H72.1802V20.4232H67.7337L67.7363 19.8093H72.1802V18.4117C72.1802 18.3843 72.1569 18.3618 72.1284 18.3618H65.6672C65.6387 18.3618 65.6154 18.3843 65.6154 18.4117V23.9621C65.6154 23.9895 65.6387 24.012 65.6672 24.012H65.8291C65.8576 24.0108 65.9043 24.0095 65.9328 24.0095L68.5991 23.9846C68.6276 23.9846 68.651 23.9846 68.651 23.9846C69.0487 23.9846 69.4789 23.9733 69.9258 23.9521C70.3638 23.9309 70.803 23.9034 71.2279 23.8685C71.6451 23.8348 72.0377 23.7949 72.3966 23.7525L72.4121 23.75C72.429 23.7475 72.4432 23.7238 72.4432 23.6963V22.3461C72.4432 22.3461 72.3111 22.3599 72.2411 22.3674L72.2424 22.3686Z" fill="#003A70"/>
<path d="M75.8558 21.8469H77.4831C77.5116 21.8469 77.535 21.8245 77.535 21.797V20.3408C77.535 20.3133 77.5116 20.2909 77.4831 20.2909H75.8558L75.8584 18.0785C75.8584 18.051 75.8351 18.0286 75.8066 18.0286C75.8066 18.0286 73.5328 18.0286 73.4952 18.0286C73.7038 18.4329 73.7945 18.7922 73.7971 19.2539V23.952C73.7971 23.9795 73.8204 24.0019 73.8489 24.0019H75.8066C75.8351 24.0019 75.8584 23.9795 75.8584 23.952L75.8558 21.8457V21.8469Z" fill="#003A70"/>
<path d="M75.8585 24.536C75.8585 24.5085 75.8351 24.4861 75.8066 24.4861H67.7842C67.7557 24.4861 67.7324 24.5085 67.7324 24.536V25.9336H73.7673V26.525H67.7842C67.7557 26.525 67.7324 26.5475 67.7324 26.575V29.9691C67.7324 29.9965 67.7557 30.019 67.7842 30.019H75.8066C75.8351 30.019 75.8585 29.9965 75.8585 29.9691V28.5715H69.7782V27.9725H75.8585V24.536Z" fill="#003A70"/>
<path d="M51.5373 18.0298H49.6366C49.6366 18.0298 49.3205 18.0298 49.2829 18.0298C49.4915 18.4341 49.5822 18.7935 49.5848 19.2552V22.0016H48.6882V18.0797C48.6882 18.0522 48.6649 18.0298 48.6364 18.0298H46.3807C46.5893 18.4341 46.68 18.7935 46.6826 19.2552V29.9691C46.6826 29.9965 46.7059 30.019 46.7344 30.019H48.6364C48.6649 30.019 48.6882 29.9965 48.6882 29.9691V23.6725H49.5848V29.9691C49.5848 29.9965 49.6081 30.019 49.6366 30.019H51.5373C51.5658 30.019 51.5891 29.9965 51.5891 29.9691V18.0797C51.5891 18.0522 51.5658 18.0298 51.5373 18.0298Z" fill="#003A70"/>
<path d="M39.8936 20.2161H43.5265C43.5965 20.2161 43.6483 20.271 43.6418 20.3371C43.6172 20.7239 43.568 20.9298 43.5317 21.1257C43.4889 21.3616 43.4358 21.6299 43.3762 21.8545H39.8016V23.297H42.6869C42.4071 23.9895 42.0391 24.4088 41.6401 24.8331C41.1387 25.3659 40.5362 25.8663 39.847 26.3192L39.5373 26.5239L41.2242 27.6344L41.3758 27.5296C42.8826 26.4877 43.9929 25.2598 44.677 23.8785C45.3572 22.5033 45.7174 20.8687 45.7459 19.0206L45.7498 18.7673H39.8923V20.2148L39.8936 20.2161Z" fill="#003A70"/>
</g>
<defs>
<clipPath id="clip0_9_27454">
<rect width="74" height="18" fill="white" transform="translate(16 15)"/>
</clipPath>
</defs>
</svg>
