<svg width="110" height="48" viewBox="0 0 110 48" fill="none" xmlns="http://www.w3.org/2000/svg">
<rect width="110" height="48" fill="white"/>
<g clip-path="url(#clip0_9_28239)">
<path d="M76.7856 20.292H80.5144V26.3328H83.8739L88.529 32.9999H84.0229L80.5144 27.9537V32.9999H76.7856V20.292Z" fill="#C8C8C8"/>
<path d="M92 15L89.7158 26.8282L88.6146 24.8279C88.6146 24.8279 87.8812 23.5464 87.2775 22.9662L82.4811 28.2807L79.671 25.9285L84.4686 20.6128C83.7871 20.1161 82.3671 19.597 82.3671 19.597L80.1568 18.8246L92 15Z" fill="#E4007F"/>
<path d="M26.0289 19.2552C26.0263 18.7935 25.9356 18.4341 25.727 18.0298H28.0526C28.0811 18.0298 28.1044 18.0498 28.1044 18.066V29.989C28.1044 30.004 28.0824 30.0202 28.0526 30.0202H26.0807C26.0496 30.0202 26.0289 30.004 26.0289 29.989V19.2552Z" fill="#003A70"/>
<path d="M18.5312 18.7683V20.2158H22.0734C22.3066 20.2158 22.2898 20.403 22.2898 20.4704C22.2898 21.0731 22.2211 21.6346 22.1019 22.1575H18.4327V23.6049H21.607C20.3969 26.2329 18 27.4857 18 27.4857L19.5962 28.4865C23.9987 25.8473 24.3912 22.261 24.3912 19.5495V18.7671H18.5312V18.7683Z" fill="#003A70"/>
<path d="M40.3972 23.2981H29.4169C29.3858 23.2981 29.3625 23.3143 29.3625 23.3305V24.677C29.3625 24.6919 29.3845 24.7081 29.4169 24.7081H33.6976V25.7626H30.3212C30.5389 26.1744 30.6309 26.5387 30.6309 27.0054V29.7569C30.6309 29.7756 30.6555 29.7906 30.6866 29.7906H39.099C39.1288 29.7906 39.1534 29.7756 39.1534 29.7569V25.795C39.1534 25.7775 39.1288 25.7626 39.099 25.7626H36.0828V24.7081H40.3972C40.4257 24.7081 40.4503 24.6932 40.4503 24.677V23.3305C40.4503 23.3131 40.4257 23.2981 40.3972 23.2981ZM37.083 27.1539V28.4167H32.6533V27.1539H37.083Z" fill="#003A70"/>
<path d="M38.9073 20.2333C38.9073 21.682 37.0986 22.8562 34.8689 22.8562C32.6391 22.8562 30.8304 21.682 30.8304 20.2333C30.8304 18.7846 32.6378 17.6104 34.8689 17.6104C37.0999 17.6104 38.9073 18.7846 38.9073 20.2333ZM34.8689 19.0329C33.9244 19.0329 33.1599 19.5707 33.1599 20.2333C33.1599 20.8959 33.9257 21.4325 34.8689 21.4325C35.8121 21.4325 36.5791 20.8959 36.5791 20.2333C36.5791 19.5707 35.8134 19.0329 34.8689 19.0329Z" fill="#003A70"/>
<path d="M61.6439 20.2172H62.749V18.8209C62.749 18.7935 62.7257 18.771 62.6972 18.771H55.25C55.2215 18.771 55.1982 18.7935 55.1982 18.8209V20.2172H56.3034V25.6091L55.2435 25.6204C55.215 25.6204 55.1684 25.6204 55.1399 25.6204H54.9339V27.0167C54.9339 27.0441 54.9572 27.0666 54.9857 27.0666H55.1464C55.1749 27.0641 55.2215 27.0641 55.25 27.0641L58.4567 27.0267C58.4852 27.0267 58.5085 27.0267 58.5098 27.0267C58.7987 27.0267 59.1524 27.0204 59.5579 27.0079C59.9764 26.9942 60.3949 26.9792 60.803 26.963C61.2254 26.9368 61.6309 26.9119 62.0248 26.8857C62.394 26.8619 62.9615 26.817 62.9615 26.817C62.99 26.8145 63.0133 26.7908 63.0133 26.7634V25.3795C63.0133 25.3795 62.9343 25.3883 62.898 25.392C62.6531 25.4207 62.4109 25.4432 62.1776 25.4619C62.0002 25.4756 61.6426 25.4881 61.6426 25.4881V20.2185L61.6439 20.2172ZM59.5307 25.5754H59.5281L59.269 25.5817C59.2405 25.5817 59.1939 25.5817 59.1654 25.5817H58.6005C58.6005 25.5817 58.5759 25.5817 58.5473 25.5829H58.3854V20.216H59.58V25.5729H59.5307V25.5754Z" fill="#003A70"/>
<path d="M65.9557 18.0298C65.9557 18.0298 63.6819 18.0298 63.6443 18.0298C63.8529 18.4341 63.9436 18.7935 63.9462 19.2552V29.9691C63.9462 29.9965 63.9695 30.019 63.998 30.019H65.9557C65.9842 30.019 66.0075 29.9965 66.0075 29.9691V18.0797C66.0075 18.0522 65.9842 18.0298 65.9557 18.0298Z" fill="#003A70"/>
<path d="M74.2424 22.3686C73.8667 22.4073 73.4858 22.4435 73.1113 22.4772C72.7149 22.5021 72.3249 22.5233 71.9582 22.5396C71.589 22.5558 71.0137 22.5645 71.0137 22.5645C70.9852 22.5645 70.9386 22.5645 70.9101 22.5645H69.7855C69.757 22.5645 69.7337 22.5421 69.7337 22.5146L69.7363 21.8707H74.1802V20.4232H69.7337L69.7363 19.8093H74.1802V18.4117C74.1802 18.3843 74.1569 18.3618 74.1284 18.3618H67.6672C67.6387 18.3618 67.6154 18.3843 67.6154 18.4117V23.9621C67.6154 23.9895 67.6387 24.012 67.6672 24.012H67.8291C67.8576 24.0108 67.9043 24.0095 67.9328 24.0095L70.5991 23.9846C70.6276 23.9846 70.651 23.9846 70.651 23.9846C71.0487 23.9846 71.4789 23.9733 71.9258 23.9521C72.3638 23.9309 72.803 23.9034 73.2279 23.8685C73.6451 23.8348 74.0377 23.7949 74.3966 23.7525L74.4121 23.75C74.429 23.7475 74.4432 23.7238 74.4432 23.6963V22.3461C74.4432 22.3461 74.3111 22.3599 74.2411 22.3674L74.2424 22.3686Z" fill="#003A70"/>
<path d="M77.8558 21.8469H79.4831C79.5116 21.8469 79.535 21.8245 79.535 21.797V20.3408C79.535 20.3133 79.5116 20.2909 79.4831 20.2909H77.8558L77.8584 18.0785C77.8584 18.051 77.8351 18.0286 77.8066 18.0286C77.8066 18.0286 75.5328 18.0286 75.4952 18.0286C75.7038 18.4329 75.7945 18.7922 75.7971 19.2539V23.952C75.7971 23.9795 75.8204 24.0019 75.8489 24.0019H77.8066C77.8351 24.0019 77.8584 23.9795 77.8584 23.952L77.8558 21.8457V21.8469Z" fill="#003A70"/>
<path d="M77.8584 24.536C77.8584 24.5085 77.8351 24.4861 77.8066 24.4861H69.7842C69.7557 24.4861 69.7324 24.5085 69.7324 24.536V25.9336H75.7673V26.525H69.7842C69.7557 26.525 69.7324 26.5475 69.7324 26.575V29.9691C69.7324 29.9965 69.7557 30.019 69.7842 30.019H77.8066C77.8351 30.019 77.8584 29.9965 77.8584 29.9691V28.5715H71.7781V27.9725H77.8584V24.536Z" fill="#003A70"/>
<path d="M53.5373 18.0298H51.6366C51.6366 18.0298 51.3205 18.0298 51.2829 18.0298C51.4915 18.4341 51.5822 18.7935 51.5848 19.2552V22.0016H50.6882V18.0797C50.6882 18.0522 50.6649 18.0298 50.6364 18.0298H48.3807C48.5893 18.4341 48.68 18.7935 48.6826 19.2552V29.9691C48.6826 29.9965 48.7059 30.019 48.7344 30.019H50.6364C50.6649 30.019 50.6882 29.9965 50.6882 29.9691V23.6725H51.5848V29.9691C51.5848 29.9965 51.6081 30.019 51.6366 30.019H53.5373C53.5658 30.019 53.5891 29.9965 53.5891 29.9691V18.0797C53.5891 18.0522 53.5658 18.0298 53.5373 18.0298Z" fill="#003A70"/>
<path d="M41.8936 20.2161H45.5265C45.5965 20.2161 45.6483 20.271 45.6418 20.3371C45.6172 20.7239 45.568 20.9298 45.5317 21.1257C45.489 21.3616 45.4358 21.6299 45.3762 21.8545H41.8017V23.297H44.687C44.4071 23.9895 44.0392 24.4088 43.6401 24.8331C43.1387 25.3659 42.5363 25.8663 41.847 26.3192L41.5374 26.5239L43.2242 27.6344L43.3758 27.5296C44.8826 26.4877 45.993 25.2598 46.677 23.8785C47.3572 22.5033 47.7174 20.8687 47.7459 19.0206L47.7498 18.7673H41.8924V20.2148L41.8936 20.2161Z" fill="#003A70"/>
</g>
<defs>
<clipPath id="clip0_9_28239">
<rect width="74" height="18" fill="white" transform="translate(18 15)"/>
</clipPath>
</defs>
</svg>
