<svg width="110" height="48" viewBox="0 0 110 48" fill="none" xmlns="http://www.w3.org/2000/svg">
<rect width="110" height="48" fill="white"/>
<path d="M52.5859 26.1301V27.5798H53.3509V25.7906H54.3392V30.9754H53.3509V28.4686H52.5859V29.9272H49.4694V26.1272H50.4576V27.2639H51.5947V26.1272H52.5829L52.5859 26.1301ZM51.5947 29.0798V28.1084H50.4576V29.0798H51.5947ZM51.7882 32.3867H55.9704V33.2784H50.7344V30.7628H51.7911V32.3867H51.7882ZM55.8513 31.1584H54.8541V25.6931H55.8513V31.1584Z" fill="url(#paint0_linear_9_28935)"/>
<path d="M57.0657 26.7561H58.694V25.7404H59.7566V26.7561H61.3104V27.6478H59.7566V28.2589C59.7566 28.4184 59.7685 28.5631 59.7894 28.6959C59.8132 28.8288 59.8459 28.9528 59.8936 29.0709C59.9412 29.189 60.0037 29.3042 60.0811 29.4134C60.1585 29.5227 60.2537 29.6378 60.3639 29.7589C60.4353 29.8416 60.5187 29.9301 60.6169 30.0276C60.7151 30.125 60.8163 30.2224 60.9205 30.3228C61.0247 30.4262 61.1318 30.5266 61.239 30.6269C61.3462 30.7303 61.4533 30.8277 61.5605 30.9193L60.8878 31.6131C60.7092 31.4478 60.5335 31.2795 60.3549 31.1053C60.1763 30.9311 60.0126 30.7657 59.8549 30.6063C59.6882 30.435 59.5512 30.2874 59.4441 30.1663C59.3369 30.0423 59.2685 29.9478 59.2417 29.8829H59.2238C59.1851 29.9597 59.1047 30.0689 58.9827 30.2136C58.8607 30.3553 58.7297 30.5 58.5928 30.6417C58.438 30.8012 58.2772 30.9665 58.1105 31.1318C57.9438 31.3001 57.7444 31.4891 57.5122 31.6958L56.8217 30.996C57.2741 30.5945 57.6849 30.1959 58.051 29.8002C58.1731 29.6614 58.2743 29.5374 58.3576 29.4193C58.4409 29.3042 58.5064 29.1861 58.557 29.068C58.6076 28.9499 58.6404 28.8258 58.6612 28.6959C58.6821 28.566 58.691 28.4213 58.691 28.256V27.6448H57.0628V26.7531L57.0657 26.7561ZM60.9384 28.4302H62.2927V25.6931H63.3494V33.3611H62.2927V29.3367H60.9384V28.4302Z" fill="url(#paint1_linear_9_28935)"/>
<path d="M64.3973 29.9303H65.4212C65.7368 29.9303 66.0344 29.9303 66.3113 29.9214V29.5435C65.8945 29.4844 65.576 29.3634 65.3557 29.1803C65.1325 29.0002 65.0224 28.7788 65.0224 28.5219V28.3063C65.0224 28.0052 65.1772 27.7542 65.4867 27.5534C65.7963 27.3527 66.2428 27.2523 66.8262 27.2523C67.4096 27.2523 67.8532 27.3527 68.1627 27.5534C68.4723 27.7542 68.6271 28.0052 68.6271 28.3063V28.5219C68.6271 28.7758 68.517 28.9943 68.2997 29.1774C68.0824 29.3604 67.7639 29.4844 67.3471 29.5435V29.8978C67.7281 29.886 68.0675 29.8742 68.3562 29.8565C68.6479 29.8388 68.9188 29.8181 69.1659 29.7915L69.2403 30.6242C69.014 30.6507 68.7521 30.6744 68.4544 30.695C68.1568 30.7157 67.8145 30.7305 67.4245 30.7393C67.0346 30.7511 66.5911 30.76 66.091 30.7629C65.5909 30.7659 65.0283 30.7718 64.3943 30.7718V29.9303H64.3973ZM66.2993 26.2366V25.5781H67.3471V26.2366H68.9099V27.0781H64.6949V26.2366H66.2993ZM65.3944 31.135H70.5887V33.4587H69.5171V31.9824H65.3944V31.132V31.135ZM66.8232 28.0259C66.5583 28.0259 66.3559 28.0613 66.216 28.1321C66.0761 28.203 66.0076 28.2886 66.0076 28.389V28.4392C66.0076 28.5367 66.0761 28.6223 66.216 28.6931C66.3559 28.764 66.5583 28.7994 66.8232 28.7994C67.0882 28.7994 67.2906 28.764 67.4305 28.6931C67.5704 28.6223 67.6388 28.5367 67.6388 28.4392V28.389C67.6388 28.2886 67.5704 28.206 67.4305 28.1321C67.2906 28.0613 67.0882 28.0259 66.8232 28.0259ZM70.5887 27.9757H71.6127V28.8821H70.5887V30.7866H69.5498V25.6903H70.5887V27.9727V27.9757Z" fill="url(#paint2_linear_9_28935)"/>
<path d="M74.1875 29.9806C73.8779 29.9806 73.5981 29.9334 73.351 29.8359C73.104 29.7385 72.8956 29.6086 72.7229 29.4432C72.5503 29.2779 72.4193 29.0889 72.3271 28.8734C72.2348 28.6578 72.1901 28.4364 72.1901 28.2061V27.7455C72.1901 27.5152 72.2348 27.2908 72.3271 27.0782C72.4193 26.8626 72.5503 26.6737 72.7229 26.5083C72.8956 26.343 73.104 26.213 73.351 26.1156C73.5981 26.0182 73.8779 25.9709 74.1875 25.9709C74.497 25.9709 74.7768 26.0182 75.0239 26.1156C75.271 26.213 75.4793 26.343 75.652 26.5083C75.8246 26.6737 75.9556 26.8626 76.0479 27.0782C76.1401 27.2937 76.1848 27.5152 76.1848 27.7455V28.2061C76.1848 28.4364 76.1401 28.6608 76.0479 28.8734C75.9556 29.0889 75.8246 29.2779 75.652 29.4432C75.4793 29.6086 75.271 29.7385 75.0239 29.8359C74.7768 29.9334 74.5 29.9806 74.1875 29.9806ZM74.1875 26.8715C74.0327 26.8715 73.8928 26.8981 73.7678 26.9482C73.6427 27.0014 73.5385 27.0723 73.4522 27.1579C73.3659 27.2465 73.3004 27.3469 73.2528 27.462C73.2052 27.5772 73.1813 27.6953 73.1813 27.8163V28.1293C73.1813 28.2563 73.2052 28.3744 73.2528 28.4866C73.3004 28.5988 73.3659 28.6992 73.4522 28.7877C73.5385 28.8763 73.6427 28.9442 73.7678 28.9974C73.8928 29.0505 74.0327 29.0741 74.1875 29.0741C74.3422 29.0741 74.4821 29.0476 74.6072 28.9974C74.7322 28.9442 74.8364 28.8763 74.9227 28.7877C75.009 28.6992 75.0745 28.5988 75.1221 28.4866C75.1698 28.3744 75.1936 28.2533 75.1936 28.1293V27.8163C75.1936 27.6953 75.1698 27.5772 75.1221 27.462C75.0745 27.3469 75.009 27.2435 74.9227 27.1579C74.8364 27.0693 74.7322 26.9984 74.6072 26.9482C74.4821 26.8951 74.3422 26.8715 74.1875 26.8715ZM74.5119 32.387H78.5006V33.2787H73.4552V30.7069H74.5119V32.3899V32.387ZM78.3756 31.1498H77.3278V25.6904H78.3756V31.1498Z" fill="url(#paint3_linear_9_28935)"/>
<path d="M79.855 30.9606C80.2718 30.7126 80.626 30.4941 80.9177 30.3022C81.2124 30.1102 81.4565 29.9331 81.6529 29.7707C81.8494 29.6083 82.0042 29.4548 82.1173 29.3101C82.2304 29.1654 82.3167 29.0178 82.3733 28.8701C82.4328 28.7225 82.4685 28.566 82.4864 28.4007C82.5042 28.2353 82.5102 28.0523 82.5102 27.8485V27.2787H79.992V26.3811H83.5669V27.8987C83.5669 28.1733 83.552 28.4243 83.5252 28.6487C83.4984 28.8731 83.4419 29.0857 83.3645 29.2806C83.2841 29.4754 83.171 29.6644 83.0222 29.8445C82.8763 30.0246 82.6858 30.2136 82.4536 30.4085C82.2215 30.6033 81.9357 30.813 81.6023 31.0344C81.266 31.2559 80.8701 31.5068 80.4087 31.7873L79.8521 30.9635L79.855 30.9606ZM86.0226 33.3611H84.9659V25.6931H86.0226V33.3611Z" fill="url(#paint4_linear_9_28935)"/>
<path d="M89.2167 29.5345C88.8892 29.5345 88.6035 29.4872 88.3564 29.3928C88.1093 29.2983 87.904 29.1743 87.7373 29.0178C87.5706 28.8613 87.4455 28.6812 87.3622 28.4833C87.2789 28.2826 87.2372 28.0729 87.2372 27.8515V27.6212C87.2372 27.4027 87.2789 27.1901 87.3622 26.9893C87.4455 26.7885 87.5706 26.6084 87.7373 26.4549C87.904 26.2984 88.1093 26.1744 88.3564 26.0799C88.6035 25.9854 88.8892 25.9411 89.2167 25.9411C89.4994 25.9411 89.7525 25.9766 89.9757 26.0474C90.2019 26.1183 90.3954 26.2157 90.5591 26.3397C90.7228 26.4637 90.8538 26.6084 90.955 26.7738C91.0533 26.9391 91.1247 27.1133 91.1634 27.2934H92.4523V25.6931H93.5001V29.6437H92.4523V28.1586H91.1723C91.1396 28.3446 91.0741 28.5217 90.9729 28.69C90.8717 28.8583 90.7407 29.003 90.577 29.127C90.4133 29.251 90.2168 29.3485 89.9906 29.4223C89.7644 29.4961 89.5054 29.5345 89.2167 29.5345ZM89.2167 26.821C89.05 26.821 88.9041 26.8446 88.7791 26.8919C88.6541 26.9391 88.5529 27.0011 88.4725 27.0808C88.3921 27.1606 88.3326 27.2491 88.2939 27.3495C88.2552 27.447 88.2373 27.5474 88.2373 27.6448V27.8249C88.2373 27.9253 88.2552 28.0227 88.2939 28.1231C88.3326 28.2235 88.3921 28.3121 88.4725 28.3918C88.5529 28.4715 88.6541 28.5335 88.7791 28.5808C88.9041 28.628 89.05 28.6516 89.2167 28.6516C89.3833 28.6516 89.5292 28.628 89.6542 28.5808C89.7792 28.5335 89.8804 28.4715 89.9608 28.3918C90.0412 28.3121 90.1007 28.2235 90.1394 28.1231C90.1781 28.0227 90.1989 27.9253 90.1989 27.8249V27.6448C90.1989 27.5474 90.1781 27.447 90.1394 27.3495C90.1007 27.2491 90.0412 27.1606 89.9608 27.0808C89.8804 27.0011 89.7792 26.9391 89.6542 26.8919C89.5292 26.8446 89.3833 26.821 89.2167 26.821ZM93.4971 29.9892V33.3699H88.5767V29.9892H89.6155V30.8543H92.4582V29.9892H93.4971ZM92.4553 32.5107V31.7106H89.6125V32.5107H92.4553Z" fill="url(#paint5_linear_9_28935)"/>
<path d="M49.4694 19.54H50.1272L51.0321 22.221L51.9727 19.54H52.5948L51.2911 22.9651H50.7404L49.4694 19.54Z" fill="#A6A7AA"/>
<path d="M54.9434 22.7228C54.8154 22.8084 54.6666 22.8763 54.494 22.9265C54.3213 22.9767 54.11 23.0033 53.8599 23.0033C53.7081 23.0033 53.5593 22.9826 53.4134 22.9442C53.2706 22.9058 53.1426 22.8379 53.0265 22.7434C52.9134 22.649 52.8211 22.525 52.7526 22.3685C52.6842 22.212 52.6484 22.0171 52.6484 21.7809V21.5093C52.6484 21.2967 52.6782 21.1136 52.7407 20.9601C52.8032 20.8065 52.8895 20.6796 52.9967 20.5792C53.1068 20.4788 53.2319 20.405 53.3777 20.3577C53.5236 20.3105 53.6813 20.2869 53.848 20.2869C54.0147 20.2869 54.1695 20.3105 54.3094 20.3577C54.4523 20.405 54.5743 20.4788 54.6755 20.5733C54.7767 20.6707 54.8571 20.7918 54.9137 20.9335C54.9702 21.0782 55 21.2435 55 21.4354V21.8665H53.2319C53.2319 22.0762 53.2884 22.2326 53.3986 22.3389C53.5117 22.4452 53.6724 22.4984 53.8837 22.4984C54.0415 22.4984 54.1784 22.4807 54.3005 22.4482C54.4225 22.4157 54.5505 22.3596 54.6845 22.2828L54.9345 22.7169L54.9434 22.7228ZM54.4315 21.4207V21.3055C54.4315 21.2347 54.4225 21.1697 54.4017 21.1047C54.3808 21.0398 54.3451 20.9866 54.2975 20.9394C54.2499 20.8922 54.1874 20.8538 54.1159 20.8242C54.0415 20.7947 53.9522 20.7829 53.848 20.7829C53.6456 20.7829 53.4968 20.8361 53.3956 20.9394C53.2944 21.0427 53.2438 21.1697 53.2438 21.3203V21.4207H54.4315Z" fill="#A6A7AA"/>
<path d="M56.9408 20.2898C57.0598 20.2898 57.1729 20.3075 57.2831 20.343C57.3932 20.3784 57.4914 20.4345 57.5778 20.5113C57.6641 20.588 57.7325 20.6884 57.7832 20.8124C57.8338 20.9364 57.8605 21.0841 57.8605 21.2583V22.9649H57.2563V21.3882C57.2563 21.0044 57.0896 20.8124 56.7532 20.8124C56.7056 20.8124 56.649 20.8183 56.5836 20.8331C56.5181 20.8479 56.4556 20.8744 56.396 20.9187C56.3365 20.9601 56.2859 21.0221 56.2442 21.1018C56.2026 21.1815 56.1817 21.2849 56.1817 21.4148V22.9649H55.5775V20.3459H56.149V20.6441H56.1579C56.2502 20.5113 56.3663 20.4197 56.5002 20.3666C56.6342 20.3134 56.783 20.2869 56.9378 20.2869L56.9408 20.2898Z" fill="#A6A7AA"/>
<path d="M58.7238 20.842H58.3011V20.349H58.7238V19.6787H59.328V20.349H59.9948V20.842H59.328V22.2209C59.328 22.3331 59.3518 22.404 59.3965 22.4394C59.4411 22.4748 59.5066 22.4926 59.587 22.4926C59.6465 22.4926 59.7061 22.4867 59.7656 22.4748C59.8251 22.463 59.8906 22.4424 59.9591 22.4158L60.0543 22.8971C60.0008 22.9236 59.9263 22.9473 59.8311 22.9709C59.7358 22.9945 59.6287 23.0063 59.5126 23.0063C59.3608 23.0063 59.2358 22.9886 59.1345 22.9532C59.0333 22.9177 58.95 22.8675 58.8905 22.7996C58.8309 22.7347 58.7863 22.652 58.7625 22.5546C58.7357 22.4571 58.7238 22.3479 58.7238 22.2239V20.842Z" fill="#A6A7AA"/>
<path d="M61.4266 23.0094C61.1498 23.0094 60.9266 22.9268 60.7599 22.7644C60.5932 22.602 60.5098 22.3599 60.5098 22.041V20.3491H61.1141V21.914C61.1141 22.0292 61.126 22.1236 61.1528 22.1975C61.1796 22.2713 61.2123 22.3303 61.257 22.3746C61.3016 22.4189 61.3552 22.4484 61.4147 22.4662C61.4743 22.4839 61.5397 22.4927 61.6112 22.4927C61.6707 22.4927 61.7362 22.4839 61.8017 22.4632C61.8672 22.4455 61.9267 22.4101 61.9803 22.3628C62.0339 22.3156 62.0815 22.2506 62.1172 22.1738C62.1529 22.0941 62.1708 21.9967 62.1708 21.8786V20.3521H62.7751V22.9711H62.2006V22.6581H62.1916C62.1529 22.7201 62.1053 22.7762 62.0488 22.8205C61.9922 22.8648 61.9267 22.9002 61.8582 22.9297C61.7898 22.9592 61.7183 22.9799 61.641 22.9947C61.5636 23.0094 61.4921 23.0153 61.4237 23.0153L61.4266 23.0094Z" fill="#A6A7AA"/>
<path d="M65.0224 20.8835C64.9777 20.8658 64.9301 20.851 64.8795 20.8422C64.8289 20.8333 64.7634 20.8274 64.689 20.8274C64.6057 20.8274 64.5283 20.8422 64.4568 20.8717C64.3854 20.9012 64.3229 20.9396 64.2693 20.9927C64.2157 21.0459 64.174 21.1079 64.1443 21.1788C64.1145 21.2496 64.0996 21.3293 64.0996 21.415V22.968H63.4954V20.3491H64.0758V20.73H64.0847C64.1562 20.5971 64.2485 20.4908 64.3645 20.4111C64.4806 20.3314 64.6324 20.293 64.8229 20.293C64.8884 20.293 64.9569 20.2989 65.0254 20.3077C65.0938 20.3166 65.1504 20.3314 65.198 20.3461L65.0254 20.8864L65.0224 20.8835Z" fill="#A6A7AA"/>
<path d="M67.74 22.7228C67.612 22.8084 67.4632 22.8763 67.2905 22.9265C67.1179 22.9767 66.9065 23.0033 66.6565 23.0033C66.5047 23.0033 66.3559 22.9826 66.21 22.9442C66.0671 22.9058 65.9391 22.8379 65.823 22.7434C65.7099 22.649 65.6177 22.525 65.5492 22.3685C65.4807 22.212 65.445 22.0171 65.445 21.7809V21.5093C65.445 21.2967 65.4748 21.1136 65.5373 20.9601C65.5998 20.8065 65.6861 20.6796 65.7933 20.5792C65.9034 20.4788 66.0284 20.405 66.1743 20.3577C66.3201 20.3105 66.4779 20.2869 66.6446 20.2869C66.8113 20.2869 66.9661 20.3105 67.106 20.3577C67.2489 20.405 67.3709 20.4788 67.4721 20.5733C67.5733 20.6707 67.6537 20.7918 67.7102 20.9335C67.7668 21.0782 67.7966 21.2435 67.7966 21.4354V21.8665H66.0284C66.0284 22.0762 66.085 22.2326 66.1951 22.3389C66.3082 22.4452 66.469 22.4984 66.6803 22.4984C66.8381 22.4984 66.975 22.4807 67.097 22.4482C67.2191 22.4157 67.3471 22.3596 67.481 22.2828L67.7311 22.7169L67.74 22.7228ZM67.228 21.4207V21.3055C67.228 21.2347 67.2191 21.1697 67.1983 21.1047C67.1774 21.0398 67.1417 20.9866 67.0941 20.9394C67.0464 20.8922 66.9839 20.8538 66.9125 20.8242C66.8381 20.7947 66.7488 20.7829 66.6446 20.7829C66.4422 20.7829 66.2934 20.8361 66.1921 20.9394C66.0909 21.0427 66.0403 21.1697 66.0403 21.3203V21.4207H67.228Z" fill="#A6A7AA"/>
<path d="M71.827 19.54V20.0449H70.2137V20.9662H71.7288V21.4592H70.2137V22.4631H71.8627V22.968H69.6064V19.543H71.83L71.827 19.54Z" fill="#A6A7AA"/>
<path d="M73.8482 20.2898C73.9672 20.2898 74.0803 20.3075 74.1905 20.343C74.3006 20.3784 74.3988 20.4345 74.4852 20.5113C74.5715 20.588 74.64 20.6884 74.6906 20.8124C74.7412 20.9364 74.768 21.0841 74.768 21.2583V22.9649H74.1637V21.3882C74.1637 21.0044 73.997 20.8124 73.6606 20.8124C73.613 20.8124 73.5565 20.8183 73.491 20.8331C73.4255 20.8479 73.363 20.8744 73.3034 20.9187C73.2439 20.9601 73.1933 21.0221 73.1516 21.1018C73.11 21.1815 73.0891 21.2849 73.0891 21.4148V22.9649H72.4849V20.3459H73.0534V20.6441H73.0623C73.1546 20.5113 73.2677 20.4197 73.4046 20.3666C73.5416 20.3134 73.6874 20.2869 73.8422 20.2869L73.8482 20.2898Z" fill="#A6A7AA"/>
<path d="M75.6312 20.842H75.2085V20.349H75.6312V19.6787H76.2354V20.349H76.9022V20.842H76.2354V22.2209C76.2354 22.3331 76.2593 22.404 76.3039 22.4394C76.3515 22.4748 76.414 22.4926 76.4944 22.4926C76.5539 22.4926 76.6165 22.4867 76.673 22.4748C76.7325 22.463 76.798 22.4424 76.8665 22.4158L76.9617 22.8971C76.9082 22.9236 76.8337 22.9473 76.7385 22.9709C76.6432 22.9945 76.5391 23.0063 76.42 23.0063C76.2712 23.0063 76.1432 22.9886 76.042 22.9532C75.9408 22.9177 75.8574 22.8675 75.7979 22.7996C75.7383 22.7347 75.6937 22.652 75.6669 22.5546C75.6401 22.4571 75.6282 22.3479 75.6282 22.2239V20.842H75.6312Z" fill="#A6A7AA"/>
<path d="M79.5931 22.7228C79.4651 22.8084 79.3163 22.8763 79.1436 22.9265C78.971 22.9767 78.7596 23.0033 78.5096 23.0033C78.3578 23.0033 78.209 22.9826 78.0631 22.9442C77.9172 22.9058 77.7922 22.8379 77.6761 22.7434C77.563 22.649 77.4707 22.525 77.4023 22.3685C77.3338 22.212 77.2981 22.0171 77.2981 21.7809V21.5093C77.2981 21.2967 77.3279 21.1136 77.3904 20.9601C77.4529 20.8065 77.5392 20.6796 77.6464 20.5792C77.7565 20.4788 77.8815 20.405 78.0274 20.3577C78.1732 20.3105 78.331 20.2869 78.4977 20.2869C78.6644 20.2869 78.8192 20.3105 78.9591 20.3577C79.1019 20.405 79.224 20.4788 79.3252 20.5733C79.4264 20.6707 79.5068 20.7918 79.5633 20.9335C79.6199 21.0782 79.6496 21.2435 79.6496 21.4354V21.8665H77.8815C77.8815 22.0762 77.9381 22.2326 78.0482 22.3389C78.1613 22.4452 78.3221 22.4984 78.5334 22.4984C78.6912 22.4984 78.8281 22.4807 78.9501 22.4482C79.0722 22.4157 79.2002 22.3596 79.3341 22.2828L79.5842 22.7169L79.5931 22.7228ZM79.0781 21.4207V21.3055C79.0781 21.2347 79.0692 21.1697 79.0484 21.1047C79.0275 21.0398 78.9918 20.9866 78.9442 20.9394C78.8966 20.8922 78.834 20.8538 78.7626 20.8242C78.6882 20.7947 78.5989 20.7829 78.4947 20.7829C78.2923 20.7829 78.1435 20.8361 78.0423 20.9394C77.9411 21.0427 77.8905 21.1697 77.8905 21.3203V21.4207H79.0781Z" fill="#A6A7AA"/>
<path d="M81.7571 20.8835C81.7125 20.8658 81.6648 20.851 81.6142 20.8422C81.5636 20.8333 81.4982 20.8274 81.4237 20.8274C81.3404 20.8274 81.263 20.8422 81.1916 20.8717C81.1201 20.9012 81.0576 20.9396 81.004 20.9927C80.9504 21.0459 80.9088 21.1079 80.879 21.1788C80.8492 21.2496 80.8344 21.3293 80.8344 21.415V22.968H80.2301V20.3491H80.8105V20.73H80.8195C80.8909 20.5971 80.9832 20.4908 81.0993 20.4111C81.2154 20.3314 81.3672 20.293 81.5577 20.293C81.6261 20.293 81.6916 20.2989 81.7601 20.3077C81.8256 20.3166 81.8851 20.3314 81.9327 20.3461L81.7601 20.8864L81.7571 20.8835Z" fill="#A6A7AA"/>
<path d="M83.6414 23.0035C83.4806 23.0035 83.3437 22.9769 83.2306 22.9208C83.1145 22.8647 83.0222 22.7909 82.9537 22.6994V23.9838H82.3495V20.3491H82.9299V20.6325C82.9746 20.5646 83.0282 20.5115 83.0877 20.4672C83.1472 20.4229 83.2127 20.3875 83.2782 20.3639C83.3437 20.3402 83.4122 20.3196 83.4806 20.3078C83.5491 20.2959 83.6146 20.29 83.6741 20.29C83.8467 20.29 83.9956 20.3166 84.1265 20.3698C84.2575 20.4229 84.3647 20.4997 84.451 20.5942C84.5373 20.6916 84.6028 20.8067 84.6445 20.9455C84.6891 21.0843 84.71 21.2349 84.71 21.4032V21.8638C84.71 22.0409 84.6862 22.2004 84.6356 22.3392C84.585 22.4779 84.5135 22.596 84.4212 22.6964C84.329 22.7939 84.2158 22.8706 84.0849 22.9208C83.9539 22.974 83.808 23.0005 83.6443 23.0005L83.6414 23.0035ZM84.1057 21.5006C84.1057 21.2792 84.0611 21.1079 83.9747 20.9839C83.8884 20.8628 83.7485 20.8008 83.5521 20.8008C83.3556 20.8008 83.1978 20.8599 83.0937 20.975C82.9895 21.0902 82.9389 21.2378 82.9389 21.4209V21.976C82.9389 22.038 82.9537 22.097 82.9865 22.159C83.0192 22.2211 83.0609 22.2772 83.1175 22.3244C83.171 22.3746 83.2365 22.413 83.3139 22.4455C83.3913 22.4779 83.4747 22.4927 83.5669 22.4927C83.7426 22.4927 83.8765 22.4307 83.9658 22.3096C84.0581 22.1886 84.1027 22.0173 84.1027 21.7988V21.5006H84.1057Z" fill="#A6A7AA"/>
<path d="M86.8114 20.8835C86.7668 20.8658 86.7192 20.851 86.6686 20.8422C86.618 20.8333 86.5525 20.8274 86.4781 20.8274C86.3947 20.8274 86.3173 20.8422 86.2459 20.8717C86.1744 20.9012 86.1119 20.9396 86.0584 20.9927C86.0048 21.0459 85.9631 21.1079 85.9333 21.1788C85.9036 21.2496 85.8887 21.3293 85.8887 21.415V22.968H85.2844V20.3491H85.8649V20.73H85.8738C85.9452 20.5971 86.0375 20.4908 86.1536 20.4111C86.2697 20.3314 86.4215 20.293 86.612 20.293C86.6805 20.293 86.746 20.2989 86.8144 20.3077C86.8799 20.3166 86.9394 20.3314 86.9871 20.3461L86.8144 20.8864L86.8114 20.8835Z" fill="#A6A7AA"/>
<path d="M87.4009 19.3157H88.0319V19.9623H87.4009V19.3157ZM87.4158 20.3461H88.02V22.9651H87.4158V20.3461Z" fill="#A6A7AA"/>
<path d="M89.6244 22.4957C89.7613 22.4957 89.8714 22.478 89.9518 22.4396C90.0322 22.4042 90.0739 22.3333 90.0739 22.2329V22.2034C90.0739 22.1591 90.0679 22.1207 90.056 22.0912C90.0441 22.0617 90.0203 22.0351 89.9816 22.0115C89.9429 21.9878 89.8893 21.9672 89.8149 21.9495C89.7435 21.9317 89.6452 21.9081 89.5202 21.8815C89.3595 21.8491 89.2255 21.8136 89.1094 21.7693C88.9963 21.7251 88.904 21.6749 88.8326 21.6099C88.7612 21.5479 88.7076 21.4711 88.6748 21.3826C88.6421 21.294 88.6242 21.1877 88.6242 21.0637V21.0164C88.6242 20.9279 88.6421 20.8393 88.6808 20.7536C88.7165 20.6651 88.776 20.5883 88.8594 20.5174C88.9427 20.4466 89.0469 20.3905 89.1749 20.3491C89.3029 20.3048 89.4607 20.2842 89.6452 20.2842C89.8 20.2842 89.9607 20.2989 90.1304 20.3255C90.3031 20.355 90.4638 20.42 90.6156 20.5204L90.3566 20.9515C90.2673 20.8924 90.1661 20.8481 90.056 20.8245C89.9459 20.7979 89.8327 20.7861 89.7196 20.7861C89.5321 20.7861 89.4011 20.8068 89.3327 20.8511C89.2612 20.8924 89.2255 20.9515 89.2255 21.0194V21.0489C89.2255 21.0962 89.2315 21.1345 89.2463 21.1641C89.2583 21.1936 89.2821 21.2172 89.3178 21.2379C89.3535 21.2585 89.4041 21.2763 89.4666 21.291C89.5321 21.3058 89.6125 21.3235 89.7167 21.3442C89.8834 21.3796 90.0262 21.415 90.1512 21.4534C90.2733 21.4918 90.3745 21.542 90.4519 21.604C90.5293 21.666 90.5888 21.7428 90.6275 21.8373C90.6662 21.9317 90.6841 22.0469 90.6841 22.1857V22.2388C90.6841 22.3392 90.6603 22.4366 90.6156 22.5282C90.568 22.6197 90.5025 22.7024 90.4132 22.7703C90.3239 22.8412 90.2138 22.8943 90.0828 22.9356C89.9518 22.977 89.803 22.9976 89.6363 22.9976C89.416 22.9976 89.2077 22.9681 89.0112 22.912C88.8147 22.8559 88.654 22.7762 88.526 22.6758L88.7939 22.2181C88.913 22.2979 89.038 22.3628 89.1719 22.413C89.3059 22.4632 89.4547 22.4898 89.6214 22.4898L89.6244 22.4957Z" fill="#A6A7AA"/>
<path d="M93.3601 22.7228C93.2321 22.8084 93.0832 22.8763 92.9106 22.9265C92.7379 22.9767 92.5266 23.0033 92.2766 23.0033C92.1218 23.0033 91.9759 22.9826 91.8301 22.9442C91.6872 22.9058 91.5592 22.8379 91.4431 22.7434C91.33 22.649 91.2377 22.525 91.1692 22.3685C91.1008 22.212 91.0651 22.0171 91.0651 21.7809V21.5093C91.0651 21.2967 91.0978 21.1136 91.1603 20.9601C91.2228 20.8065 91.3091 20.6796 91.4163 20.5792C91.5235 20.4788 91.6515 20.405 91.7973 20.3577C91.9432 20.3105 92.1009 20.2869 92.2706 20.2869C92.4403 20.2869 92.5891 20.3105 92.732 20.3577C92.8749 20.405 92.9969 20.4788 93.0981 20.5733C93.1993 20.6707 93.2797 20.7918 93.3362 20.9335C93.3928 21.0782 93.4226 21.2435 93.4226 21.4354V21.8665H91.6544C91.6544 22.0762 91.711 22.2326 91.8211 22.3389C91.9342 22.4452 92.095 22.4984 92.3034 22.4984C92.4611 22.4984 92.598 22.4807 92.7201 22.4482C92.8421 22.4157 92.9701 22.3596 93.1041 22.2828L93.3541 22.7169L93.3601 22.7228ZM92.8481 21.4207V21.3055C92.8481 21.2347 92.8362 21.1697 92.8183 21.1047C92.7975 21.0398 92.7618 20.9866 92.7141 20.9394C92.6665 20.8922 92.607 20.8538 92.5326 20.8242C92.4581 20.7947 92.3688 20.7829 92.2647 20.7829C92.0622 20.7829 91.9134 20.8361 91.8122 20.9394C91.711 21.0427 91.6604 21.1697 91.6604 21.3203V21.4207H92.8481Z" fill="#A6A7AA"/>
<path d="M35.6219 24.226L42.5397 31.1677H38.8189L32.7941 25.1236V35.0002H45.6533V17.7568H42.1081L35.6219 24.226Z" fill="url(#paint6_linear_9_28935)"/>
<path d="M21.6853 15.5894L16.5 15.5864L23.507 22.6196L23.5963 32.437L26.2009 29.8446L26.1146 20.0331L21.6853 15.5894Z" fill="url(#paint7_linear_9_28935)"/>
<path d="M42.6112 13.0118L19.1075 13L21.6853 15.5895L26.1146 20.0332L26.2009 29.8447L29.8622 26.2041V16.0146H32.8954V23.1895V23.1954L42.8047 13.3455L43.1351 13.0148L42.6112 13.0118Z" fill="#CFD1D2"/>
<defs>
<linearGradient id="paint0_linear_9_28935" x1="52.7169" y1="25.6931" x2="52.7169" y2="33.2784" gradientUnits="userSpaceOnUse">
<stop stop-color="#1C3969"/>
<stop offset="0.05" stop-color="#1C3A6B"/>
<stop offset="1" stop-color="#284EA1"/>
</linearGradient>
<linearGradient id="paint1_linear_9_28935" x1="60.087" y1="12.9998" x2="60.087" y2="33.3611" gradientUnits="userSpaceOnUse">
<stop stop-color="#1C3969"/>
<stop offset="0.05" stop-color="#1C3A6B"/>
<stop offset="1" stop-color="#284EA1"/>
</linearGradient>
<linearGradient id="paint2_linear_9_28935" x1="68.005" y1="25.5781" x2="68.005" y2="33.4587" gradientUnits="userSpaceOnUse">
<stop stop-color="#1C3969"/>
<stop offset="0.05" stop-color="#1C3A6B"/>
<stop offset="1" stop-color="#284EA1"/>
</linearGradient>
<linearGradient id="paint3_linear_9_28935" x1="75.3484" y1="13.0001" x2="75.3484" y2="13.0001" gradientUnits="userSpaceOnUse">
<stop stop-color="#1C3969"/>
<stop offset="0.05" stop-color="#1C3A6B"/>
<stop offset="1" stop-color="#284EA1"/>
</linearGradient>
<linearGradient id="paint4_linear_9_28935" x1="82.9388" y1="12.9998" x2="82.9388" y2="33.3611" gradientUnits="userSpaceOnUse">
<stop stop-color="#1C3969"/>
<stop offset="0.05" stop-color="#1C3A6B"/>
<stop offset="1" stop-color="#284EA1"/>
</linearGradient>
<linearGradient id="paint5_linear_9_28935" x1="90.3656" y1="12.9998" x2="90.3656" y2="33.3699" gradientUnits="userSpaceOnUse">
<stop stop-color="#1C3969"/>
<stop offset="0.05" stop-color="#1C3A6B"/>
<stop offset="1" stop-color="#284EA1"/>
</linearGradient>
<linearGradient id="paint6_linear_9_28935" x1="39.2237" y1="17.7568" x2="39.2237" y2="35.0002" gradientUnits="userSpaceOnUse">
<stop stop-color="#1C3969"/>
<stop offset="0.05" stop-color="#1C3A6B"/>
<stop offset="1" stop-color="#284EA1"/>
</linearGradient>
<linearGradient id="paint7_linear_9_28935" x1="21.3519" y1="15.5864" x2="21.3519" y2="32.437" gradientUnits="userSpaceOnUse">
<stop stop-color="#1C3969"/>
<stop offset="0.05" stop-color="#1C3A6B"/>
<stop offset="1" stop-color="#284EA1"/>
</linearGradient>
</defs>
</svg>
