<svg width="106" height="48" viewBox="0 0 106 48" fill="none" xmlns="http://www.w3.org/2000/svg">
<path d="M50.586 26.1301V27.5798H51.351V25.7906H52.3393V30.9754H51.351V28.4686H50.586V29.9272H47.4695V26.1272H48.4577V27.2639H49.5948V26.1272H50.583L50.586 26.1301ZM49.5948 29.0798V28.1084H48.4577V29.0798H49.5948ZM49.7883 32.3867H53.9705V33.2784H48.7345V30.7628H49.7912V32.3867H49.7883ZM53.8514 31.1584H52.8542V25.6931H53.8514V31.1584Z" fill="url(#paint0_linear_9_28150)"/>
<path d="M55.0658 26.7561H56.6941V25.7404H57.7567V26.7561H59.3105V27.6478H57.7567V28.2589C57.7567 28.4184 57.7686 28.5631 57.7895 28.6959C57.8133 28.8288 57.846 28.9528 57.8936 29.0709C57.9413 29.189 58.0038 29.3042 58.0812 29.4134C58.1586 29.5227 58.2538 29.6378 58.364 29.7589C58.4354 29.8416 58.5187 29.9301 58.617 30.0276C58.7152 30.125 58.8164 30.2224 58.9206 30.3228C59.0248 30.4262 59.1319 30.5266 59.2391 30.6269C59.3463 30.7303 59.4534 30.8277 59.5606 30.9193L58.8878 31.6131C58.7092 31.4478 58.5336 31.2795 58.355 31.1053C58.1764 30.9311 58.0127 30.7657 57.855 30.6063C57.6883 30.435 57.5513 30.2874 57.4442 30.1663C57.337 30.0423 57.2686 29.9478 57.2418 29.8829H57.2239C57.1852 29.9597 57.1048 30.0689 56.9828 30.2136C56.8608 30.3553 56.7298 30.5 56.5929 30.6417C56.4381 30.8012 56.2773 30.9665 56.1106 31.1318C55.9439 31.3001 55.7445 31.4891 55.5123 31.6958L54.8217 30.996C55.2742 30.5945 55.685 30.1959 56.0511 29.8002C56.1731 29.6614 56.2743 29.5374 56.3577 29.4193C56.441 29.3042 56.5065 29.1861 56.5571 29.068C56.6077 28.9499 56.6405 28.8258 56.6613 28.6959C56.6822 28.566 56.6911 28.4213 56.6911 28.256V27.6448H55.0629V26.7531L55.0658 26.7561ZM58.9385 28.4302H60.2928V25.6931H61.3495V33.3611H60.2928V29.3367H58.9385V28.4302Z" fill="url(#paint1_linear_9_28150)"/>
<path d="M62.3974 29.9303H63.4213C63.7369 29.9303 64.0345 29.9303 64.3113 29.9214V29.5435C63.8946 29.4844 63.5761 29.3634 63.3558 29.1803C63.1326 29.0002 63.0225 28.7788 63.0225 28.5219V28.3063C63.0225 28.0052 63.1772 27.7542 63.4868 27.5534C63.7964 27.3527 64.2429 27.2523 64.8263 27.2523C65.4097 27.2523 65.8532 27.3527 66.1628 27.5534C66.4724 27.7542 66.6272 28.0052 66.6272 28.3063V28.5219C66.6272 28.7758 66.517 28.9943 66.2997 29.1774C66.0825 29.3604 65.764 29.4844 65.3472 29.5435V29.8978C65.7282 29.886 66.0676 29.8742 66.3563 29.8565C66.648 29.8388 66.9189 29.8181 67.1659 29.7915L67.2404 30.6242C67.0141 30.6507 66.7522 30.6744 66.4545 30.695C66.1569 30.7157 65.8146 30.7305 65.4246 30.7393C65.0347 30.7511 64.5912 30.76 64.0911 30.7629C63.591 30.7659 63.0284 30.7718 62.3944 30.7718V29.9303H62.3974ZM64.2994 26.2366V25.5781H65.3472V26.2366H66.91V27.0781H62.695V26.2366H64.2994ZM63.3945 31.135H68.5888V33.4587H67.5172V31.9824H63.3945V31.132V31.135ZM64.8233 28.0259C64.5584 28.0259 64.356 28.0613 64.2161 28.1321C64.0762 28.203 64.0077 28.2886 64.0077 28.389V28.4392C64.0077 28.5367 64.0762 28.6223 64.2161 28.6931C64.356 28.764 64.5584 28.7994 64.8233 28.7994C65.0882 28.7994 65.2907 28.764 65.4306 28.6931C65.5705 28.6223 65.6389 28.5367 65.6389 28.4392V28.389C65.6389 28.2886 65.5705 28.206 65.4306 28.1321C65.2907 28.0613 65.0882 28.0259 64.8233 28.0259ZM68.5888 27.9757H69.6128V28.8821H68.5888V30.7866H67.5499V25.6903H68.5888V27.9727V27.9757Z" fill="url(#paint2_linear_9_28150)"/>
<path d="M72.1875 29.9806C71.8779 29.9806 71.5981 29.9334 71.3511 29.8359C71.104 29.7385 70.8957 29.6086 70.723 29.4432C70.5504 29.2779 70.4194 29.0889 70.3271 28.8734C70.2348 28.6578 70.1902 28.4364 70.1902 28.2061V27.7455C70.1902 27.5152 70.2348 27.2908 70.3271 27.0782C70.4194 26.8626 70.5504 26.6737 70.723 26.5083C70.8957 26.343 71.104 26.213 71.3511 26.1156C71.5981 26.0182 71.8779 25.9709 72.1875 25.9709C72.4971 25.9709 72.7769 26.0182 73.024 26.1156C73.271 26.213 73.4794 26.343 73.652 26.5083C73.8247 26.6737 73.9557 26.8626 74.0479 27.0782C74.1402 27.2937 74.1849 27.5152 74.1849 27.7455V28.2061C74.1849 28.4364 74.1402 28.6608 74.0479 28.8734C73.9557 29.0889 73.8247 29.2779 73.652 29.4432C73.4794 29.6086 73.271 29.7385 73.024 29.8359C72.7769 29.9334 72.5001 29.9806 72.1875 29.9806ZM72.1875 26.8715C72.0327 26.8715 71.8928 26.8981 71.7678 26.9482C71.6428 27.0014 71.5386 27.0723 71.4523 27.1579C71.366 27.2465 71.3005 27.3469 71.2529 27.462C71.2052 27.5772 71.1814 27.6953 71.1814 27.8163V28.1293C71.1814 28.2563 71.2052 28.3744 71.2529 28.4866C71.3005 28.5988 71.366 28.6992 71.4523 28.7877C71.5386 28.8763 71.6428 28.9442 71.7678 28.9974C71.8928 29.0505 72.0327 29.0741 72.1875 29.0741C72.3423 29.0741 72.4822 29.0476 72.6072 28.9974C72.7322 28.9442 72.8364 28.8763 72.9228 28.7877C73.0091 28.6992 73.0746 28.5988 73.1222 28.4866C73.1698 28.3744 73.1936 28.2533 73.1936 28.1293V27.8163C73.1936 27.6953 73.1698 27.5772 73.1222 27.462C73.0746 27.3469 73.0091 27.2435 72.9228 27.1579C72.8364 27.0693 72.7322 26.9984 72.6072 26.9482C72.4822 26.8951 72.3423 26.8715 72.1875 26.8715ZM72.512 32.387H76.5007V33.2787H71.4553V30.7069H72.512V32.3899V32.387ZM76.3757 31.1498H75.3279V25.6904H76.3757V31.1498Z" fill="url(#paint3_linear_9_28150)"/>
<path d="M77.8551 30.9606C78.2718 30.7126 78.626 30.4941 78.9178 30.3022C79.2124 30.1102 79.4565 29.9331 79.653 29.7707C79.8494 29.6083 80.0042 29.4548 80.1173 29.3101C80.2305 29.1654 80.3168 29.0178 80.3733 28.8701C80.4329 28.7225 80.4686 28.566 80.4864 28.4007C80.5043 28.2353 80.5103 28.0523 80.5103 27.8485V27.2787H77.992V26.3811H81.567V27.8987C81.567 28.1733 81.5521 28.4243 81.5253 28.6487C81.4985 28.8731 81.442 29.0857 81.3646 29.2806C81.2842 29.4754 81.1711 29.6644 81.0222 29.8445C80.8764 30.0246 80.6859 30.2136 80.4537 30.4085C80.2215 30.6033 79.9358 30.813 79.6024 31.0344C79.266 31.2559 78.8701 31.5068 78.4087 31.7873L77.8521 30.9635L77.8551 30.9606ZM84.0227 33.3611H82.966V25.6931H84.0227V33.3611Z" fill="url(#paint4_linear_9_28150)"/>
<path d="M87.2167 29.5345C86.8893 29.5345 86.6035 29.4872 86.3565 29.3928C86.1094 29.2983 85.904 29.1743 85.7373 29.0178C85.5706 28.8613 85.4456 28.6812 85.3623 28.4833C85.2789 28.2826 85.2372 28.0729 85.2372 27.8515V27.6212C85.2372 27.4027 85.2789 27.1901 85.3623 26.9893C85.4456 26.7885 85.5706 26.6084 85.7373 26.4549C85.904 26.2984 86.1094 26.1744 86.3565 26.0799C86.6035 25.9854 86.8893 25.9411 87.2167 25.9411C87.4995 25.9411 87.7525 25.9766 87.9758 26.0474C88.202 26.1183 88.3955 26.2157 88.5592 26.3397C88.7229 26.4637 88.8539 26.6084 88.9551 26.7738C89.0533 26.9391 89.1248 27.1133 89.1634 27.2934H90.4523V25.6931H91.5001V29.6437H90.4523V28.1586H89.1724C89.1396 28.3446 89.0741 28.5217 88.9729 28.69C88.8717 28.8583 88.7408 29.003 88.577 29.127C88.4133 29.251 88.2169 29.3485 87.9906 29.4223C87.7644 29.4961 87.5054 29.5345 87.2167 29.5345ZM87.2167 26.821C87.05 26.821 86.9042 26.8446 86.7792 26.8919C86.6541 26.9391 86.5529 27.0011 86.4726 27.0808C86.3922 27.1606 86.3327 27.2491 86.294 27.3495C86.2553 27.447 86.2374 27.5474 86.2374 27.6448V27.8249C86.2374 27.9253 86.2553 28.0227 86.294 28.1231C86.3327 28.2235 86.3922 28.3121 86.4726 28.3918C86.5529 28.4715 86.6541 28.5335 86.7792 28.5808C86.9042 28.628 87.05 28.6516 87.2167 28.6516C87.3834 28.6516 87.5293 28.628 87.6543 28.5808C87.7793 28.5335 87.8805 28.4715 87.9609 28.3918C88.0412 28.3121 88.1008 28.2235 88.1395 28.1231C88.1782 28.0227 88.199 27.9253 88.199 27.8249V27.6448C88.199 27.5474 88.1782 27.447 88.1395 27.3495C88.1008 27.2491 88.0412 27.1606 87.9609 27.0808C87.8805 27.0011 87.7793 26.9391 87.6543 26.8919C87.5293 26.8446 87.3834 26.821 87.2167 26.821ZM91.4971 29.9892V33.3699H86.5767V29.9892H87.6156V30.8543H90.4583V29.9892H91.4971ZM90.4553 32.5107V31.7106H87.6126V32.5107H90.4553Z" fill="url(#paint5_linear_9_28150)"/>
<path d="M47.4694 19.54H48.1273L49.0322 22.221L49.9728 19.54H50.5949L49.2911 22.9651H48.7405L47.4694 19.54Z" fill="#A6A7AA"/>
<path d="M52.9435 22.7228C52.8155 22.8084 52.6667 22.8763 52.494 22.9265C52.3214 22.9767 52.11 23.0033 51.86 23.0033C51.7082 23.0033 51.5594 22.9826 51.4135 22.9442C51.2706 22.9058 51.1426 22.8379 51.0265 22.7434C50.9134 22.649 50.8211 22.525 50.7527 22.3685C50.6842 22.212 50.6485 22.0171 50.6485 21.7809V21.5093C50.6485 21.2967 50.6783 21.1136 50.7408 20.9601C50.8033 20.8065 50.8896 20.6796 50.9968 20.5792C51.1069 20.4788 51.2319 20.405 51.3778 20.3577C51.5236 20.3105 51.6814 20.2869 51.8481 20.2869C52.0148 20.2869 52.1696 20.3105 52.3095 20.3577C52.4523 20.405 52.5744 20.4788 52.6756 20.5733C52.7768 20.6707 52.8572 20.7918 52.9137 20.9335C52.9703 21.0782 53.0001 21.2435 53.0001 21.4354V21.8665H51.2319C51.2319 22.0762 51.2885 22.2326 51.3986 22.3389C51.5117 22.4452 51.6725 22.4984 51.8838 22.4984C52.0416 22.4984 52.1785 22.4807 52.3005 22.4482C52.4226 22.4157 52.5506 22.3596 52.6845 22.2828L52.9346 22.7169L52.9435 22.7228ZM52.4315 21.4207V21.3055C52.4315 21.2347 52.4226 21.1697 52.4017 21.1047C52.3809 21.0398 52.3452 20.9866 52.2976 20.9394C52.2499 20.8922 52.1874 20.8538 52.116 20.8242C52.0416 20.7947 51.9523 20.7829 51.8481 20.7829C51.6457 20.7829 51.4968 20.8361 51.3956 20.9394C51.2944 21.0427 51.2438 21.1697 51.2438 21.3203V21.4207H52.4315Z" fill="#A6A7AA"/>
<path d="M54.9408 20.2898C55.0599 20.2898 55.173 20.3075 55.2831 20.343C55.3932 20.3784 55.4915 20.4345 55.5778 20.5113C55.6641 20.588 55.7326 20.6884 55.7832 20.8124C55.8338 20.9364 55.8606 21.0841 55.8606 21.2583V22.9649H55.2563V21.3882C55.2563 21.0044 55.0896 20.8124 54.7533 20.8124C54.7056 20.8124 54.6491 20.8183 54.5836 20.8331C54.5181 20.8479 54.4556 20.8744 54.3961 20.9187C54.3365 20.9601 54.2859 21.0221 54.2443 21.1018C54.2026 21.1815 54.1817 21.2849 54.1817 21.4148V22.9649H53.5775V20.3459H54.149V20.6441H54.1579C54.2502 20.5113 54.3663 20.4197 54.5002 20.3666C54.6342 20.3134 54.783 20.2869 54.9378 20.2869L54.9408 20.2898Z" fill="#A6A7AA"/>
<path d="M56.7238 20.842H56.3011V20.349H56.7238V19.6787H57.3281V20.349H57.9948V20.842H57.3281V22.2209C57.3281 22.3331 57.3519 22.404 57.3965 22.4394C57.4412 22.4748 57.5067 22.4926 57.587 22.4926C57.6466 22.4926 57.7061 22.4867 57.7656 22.4748C57.8252 22.463 57.8907 22.4424 57.9591 22.4158L58.0544 22.8971C58.0008 22.9236 57.9264 22.9473 57.8311 22.9709C57.7359 22.9945 57.6287 23.0063 57.5126 23.0063C57.3608 23.0063 57.2358 22.9886 57.1346 22.9532C57.0334 22.9177 56.95 22.8675 56.8905 22.7996C56.831 22.7347 56.7863 22.652 56.7625 22.5546C56.7357 22.4571 56.7238 22.3479 56.7238 22.2239V20.842Z" fill="#A6A7AA"/>
<path d="M59.4266 23.0094C59.1498 23.0094 58.9266 22.9268 58.7599 22.7644C58.5932 22.602 58.5098 22.3599 58.5098 22.041V20.3491H59.1141V21.914C59.1141 22.0292 59.126 22.1236 59.1528 22.1975C59.1796 22.2713 59.2123 22.3303 59.257 22.3746C59.3016 22.4189 59.3552 22.4484 59.4147 22.4662C59.4743 22.4839 59.5397 22.4927 59.6112 22.4927C59.6707 22.4927 59.7362 22.4839 59.8017 22.4632C59.8672 22.4455 59.9267 22.4101 59.9803 22.3628C60.0339 22.3156 60.0815 22.2506 60.1172 22.1738C60.1529 22.0941 60.1708 21.9967 60.1708 21.8786V20.3521H60.7751V22.9711H60.2006V22.6581H60.1916C60.1529 22.7201 60.1053 22.7762 60.0488 22.8205C59.9922 22.8648 59.9267 22.9002 59.8582 22.9297C59.7898 22.9592 59.7183 22.9799 59.641 22.9947C59.5636 23.0094 59.4921 23.0153 59.4237 23.0153L59.4266 23.0094Z" fill="#A6A7AA"/>
<path d="M63.0224 20.8835C62.9778 20.8658 62.9302 20.851 62.8796 20.8422C62.829 20.8333 62.7635 20.8274 62.6891 20.8274C62.6057 20.8274 62.5283 20.8422 62.4569 20.8717C62.3854 20.9012 62.3229 20.9396 62.2693 20.9927C62.2158 21.0459 62.1741 21.1079 62.1443 21.1788C62.1146 21.2496 62.0997 21.3293 62.0997 21.415V22.968H61.4954V20.3491H62.0759V20.73H62.0848C62.1562 20.5971 62.2485 20.4908 62.3646 20.4111C62.4807 20.3314 62.6325 20.293 62.823 20.293C62.8885 20.293 62.957 20.2989 63.0254 20.3077C63.0939 20.3166 63.1504 20.3314 63.1981 20.3461L63.0254 20.8864L63.0224 20.8835Z" fill="#A6A7AA"/>
<path d="M65.7401 22.7228C65.6121 22.8084 65.4632 22.8763 65.2906 22.9265C65.1179 22.9767 64.9066 23.0033 64.6566 23.0033C64.5048 23.0033 64.3559 22.9826 64.2101 22.9442C64.0672 22.9058 63.9392 22.8379 63.8231 22.7434C63.71 22.649 63.6177 22.525 63.5493 22.3685C63.4808 22.212 63.4451 22.0171 63.4451 21.7809V21.5093C63.4451 21.2967 63.4748 21.1136 63.5373 20.9601C63.5999 20.8065 63.6862 20.6796 63.7933 20.5792C63.9035 20.4788 64.0285 20.405 64.1744 20.3577C64.3202 20.3105 64.478 20.2869 64.6447 20.2869C64.8114 20.2869 64.9661 20.3105 65.106 20.3577C65.2489 20.405 65.371 20.4788 65.4722 20.5733C65.5734 20.6707 65.6537 20.7918 65.7103 20.9335C65.7669 21.0782 65.7966 21.2435 65.7966 21.4354V21.8665H64.0285C64.0285 22.0762 64.085 22.2326 64.1952 22.3389C64.3083 22.4452 64.469 22.4984 64.6804 22.4984C64.8381 22.4984 64.9751 22.4807 65.0971 22.4482C65.2192 22.4157 65.3472 22.3596 65.4811 22.2828L65.7311 22.7169L65.7401 22.7228ZM65.2281 21.4207V21.3055C65.2281 21.2347 65.2192 21.1697 65.1983 21.1047C65.1775 21.0398 65.1418 20.9866 65.0941 20.9394C65.0465 20.8922 64.984 20.8538 64.9126 20.8242C64.8381 20.7947 64.7488 20.7829 64.6447 20.7829C64.4423 20.7829 64.2934 20.8361 64.1922 20.9394C64.091 21.0427 64.0404 21.1697 64.0404 21.3203V21.4207H65.2281Z" fill="#A6A7AA"/>
<path d="M69.827 19.54V20.0449H68.2137V20.9662H69.7288V21.4592H68.2137V22.4631H69.8627V22.968H67.6064V19.543H69.83L69.827 19.54Z" fill="#A6A7AA"/>
<path d="M71.8482 20.2898C71.9673 20.2898 72.0804 20.3075 72.1905 20.343C72.3006 20.3784 72.3989 20.4345 72.4852 20.5113C72.5715 20.588 72.64 20.6884 72.6906 20.8124C72.7412 20.9364 72.768 21.0841 72.768 21.2583V22.9649H72.1637V21.3882C72.1637 21.0044 71.997 20.8124 71.6607 20.8124C71.613 20.8124 71.5565 20.8183 71.491 20.8331C71.4255 20.8479 71.363 20.8744 71.3035 20.9187C71.2439 20.9601 71.1933 21.0221 71.1517 21.1018C71.11 21.1815 71.0892 21.2849 71.0892 21.4148V22.9649H70.4849V20.3459H71.0534V20.6441H71.0624C71.1546 20.5113 71.2678 20.4197 71.4047 20.3666C71.5416 20.3134 71.6875 20.2869 71.8422 20.2869L71.8482 20.2898Z" fill="#A6A7AA"/>
<path d="M73.6312 20.842H73.2085V20.349H73.6312V19.6787H74.2354V20.349H74.9022V20.842H74.2354V22.2209C74.2354 22.3331 74.2593 22.404 74.3039 22.4394C74.3515 22.4748 74.414 22.4926 74.4944 22.4926C74.5539 22.4926 74.6165 22.4867 74.673 22.4748C74.7325 22.463 74.798 22.4424 74.8665 22.4158L74.9617 22.8971C74.9082 22.9236 74.8337 22.9473 74.7385 22.9709C74.6432 22.9945 74.5391 23.0063 74.42 23.0063C74.2712 23.0063 74.1432 22.9886 74.042 22.9532C73.9408 22.9177 73.8574 22.8675 73.7979 22.7996C73.7383 22.7347 73.6937 22.652 73.6669 22.5546C73.6401 22.4571 73.6282 22.3479 73.6282 22.2239V20.842H73.6312Z" fill="#A6A7AA"/>
<path d="M77.5931 22.7228C77.4651 22.8084 77.3163 22.8763 77.1436 22.9265C76.971 22.9767 76.7597 23.0033 76.5096 23.0033C76.3578 23.0033 76.209 22.9826 76.0631 22.9442C75.9173 22.9058 75.7923 22.8379 75.6762 22.7434C75.563 22.649 75.4708 22.525 75.4023 22.3685C75.3338 22.212 75.2981 22.0171 75.2981 21.7809V21.5093C75.2981 21.2967 75.3279 21.1136 75.3904 20.9601C75.4529 20.8065 75.5392 20.6796 75.6464 20.5792C75.7565 20.4788 75.8815 20.405 76.0274 20.3577C76.1733 20.3105 76.331 20.2869 76.4977 20.2869C76.6644 20.2869 76.8192 20.3105 76.9591 20.3577C77.102 20.405 77.224 20.4788 77.3252 20.5733C77.4264 20.6707 77.5068 20.7918 77.5634 20.9335C77.6199 21.0782 77.6497 21.2435 77.6497 21.4354V21.8665H75.8816C75.8816 22.0762 75.9381 22.2326 76.0482 22.3389C76.1614 22.4452 76.3221 22.4984 76.5334 22.4984C76.6912 22.4984 76.8281 22.4807 76.9502 22.4482C77.0722 22.4157 77.2002 22.3596 77.3342 22.2828L77.5842 22.7169L77.5931 22.7228ZM77.0782 21.4207V21.3055C77.0782 21.2347 77.0692 21.1697 77.0484 21.1047C77.0276 21.0398 76.9918 20.9866 76.9442 20.9394C76.8966 20.8922 76.8341 20.8538 76.7626 20.8242C76.6882 20.7947 76.5989 20.7829 76.4947 20.7829C76.2923 20.7829 76.1435 20.8361 76.0423 20.9394C75.9411 21.0427 75.8905 21.1697 75.8905 21.3203V21.4207H77.0782Z" fill="#A6A7AA"/>
<path d="M79.7572 20.8835C79.7125 20.8658 79.6649 20.851 79.6143 20.8422C79.5637 20.8333 79.4982 20.8274 79.4238 20.8274C79.3404 20.8274 79.263 20.8422 79.1916 20.8717C79.1202 20.9012 79.0576 20.9396 79.0041 20.9927C78.9505 21.0459 78.9088 21.1079 78.879 21.1788C78.8493 21.2496 78.8344 21.3293 78.8344 21.415V22.968H78.2301V20.3491H78.8106V20.73H78.8195C78.8909 20.5971 78.9832 20.4908 79.0993 20.4111C79.2154 20.3314 79.3672 20.293 79.5577 20.293C79.6262 20.293 79.6917 20.2989 79.7601 20.3077C79.8256 20.3166 79.8852 20.3314 79.9328 20.3461L79.7601 20.8864L79.7572 20.8835Z" fill="#A6A7AA"/>
<path d="M81.6414 23.0035C81.4806 23.0035 81.3437 22.9769 81.2306 22.9208C81.1145 22.8647 81.0222 22.7909 80.9538 22.6994V23.9838H80.3495V20.3491H80.93V20.6325C80.9746 20.5646 81.0282 20.5115 81.0877 20.4672C81.1473 20.4229 81.2127 20.3875 81.2782 20.3639C81.3437 20.3402 81.4122 20.3196 81.4806 20.3078C81.5491 20.2959 81.6146 20.29 81.6741 20.29C81.8468 20.29 81.9956 20.3166 82.1266 20.3698C82.2576 20.4229 82.3647 20.4997 82.451 20.5942C82.5374 20.6916 82.6028 20.8067 82.6445 20.9455C82.6892 21.0843 82.71 21.2349 82.71 21.4032V21.8638C82.71 22.0409 82.6862 22.2004 82.6356 22.3392C82.585 22.4779 82.5135 22.596 82.4213 22.6964C82.329 22.7939 82.2159 22.8706 82.0849 22.9208C81.9539 22.974 81.8081 23.0005 81.6444 23.0005L81.6414 23.0035ZM82.1057 21.5006C82.1057 21.2792 82.0611 21.1079 81.9748 20.9839C81.8884 20.8628 81.7485 20.8008 81.5521 20.8008C81.3556 20.8008 81.1979 20.8599 81.0937 20.975C80.9895 21.0902 80.9389 21.2378 80.9389 21.4209V21.976C80.9389 22.038 80.9538 22.097 80.9865 22.159C81.0193 22.2211 81.0609 22.2772 81.1175 22.3244C81.1711 22.3746 81.2366 22.413 81.314 22.4455C81.3913 22.4779 81.4747 22.4927 81.567 22.4927C81.7426 22.4927 81.8765 22.4307 81.9658 22.3096C82.0581 22.1886 82.1028 22.0173 82.1028 21.7988V21.5006H82.1057Z" fill="#A6A7AA"/>
<path d="M84.8115 20.8835C84.7669 20.8658 84.7192 20.851 84.6686 20.8422C84.618 20.8333 84.5525 20.8274 84.4781 20.8274C84.3948 20.8274 84.3174 20.8422 84.2459 20.8717C84.1745 20.9012 84.112 20.9396 84.0584 20.9927C84.0048 21.0459 83.9632 21.1079 83.9334 21.1788C83.9036 21.2496 83.8887 21.3293 83.8887 21.415V22.968H83.2845V20.3491H83.8649V20.73H83.8739C83.9453 20.5971 84.0376 20.4908 84.1537 20.4111C84.2698 20.3314 84.4216 20.293 84.6121 20.293C84.6805 20.293 84.746 20.2989 84.8145 20.3077C84.88 20.3166 84.9395 20.3314 84.9871 20.3461L84.8145 20.8864L84.8115 20.8835Z" fill="#A6A7AA"/>
<path d="M85.4009 19.3157H86.0319V19.9623H85.4009V19.3157ZM85.4158 20.3461H86.02V22.9651H85.4158V20.3461Z" fill="#A6A7AA"/>
<path d="M87.6244 22.4957C87.7614 22.4957 87.8715 22.478 87.9519 22.4396C88.0322 22.4042 88.0739 22.3333 88.0739 22.2329V22.2034C88.0739 22.1591 88.068 22.1207 88.0561 22.0912C88.0442 22.0617 88.0203 22.0351 87.9816 22.0115C87.9429 21.9878 87.8894 21.9672 87.815 21.9495C87.7435 21.9317 87.6453 21.9081 87.5203 21.8815C87.3595 21.8491 87.2256 21.8136 87.1095 21.7693C86.9964 21.7251 86.9041 21.6749 86.8327 21.6099C86.7612 21.5479 86.7076 21.4711 86.6749 21.3826C86.6422 21.294 86.6243 21.1877 86.6243 21.0637V21.0164C86.6243 20.9279 86.6422 20.8393 86.6808 20.7536C86.7166 20.6651 86.7761 20.5883 86.8594 20.5174C86.9428 20.4466 87.047 20.3905 87.175 20.3491C87.303 20.3048 87.4607 20.2842 87.6453 20.2842C87.8001 20.2842 87.9608 20.2989 88.1305 20.3255C88.3031 20.355 88.4639 20.42 88.6157 20.5204L88.3567 20.9515C88.2674 20.8924 88.1662 20.8481 88.0561 20.8245C87.9459 20.7979 87.8328 20.7861 87.7197 20.7861C87.5322 20.7861 87.4012 20.8068 87.3327 20.8511C87.2613 20.8924 87.2256 20.9515 87.2256 21.0194V21.0489C87.2256 21.0962 87.2315 21.1345 87.2464 21.1641C87.2583 21.1936 87.2821 21.2172 87.3179 21.2379C87.3536 21.2585 87.4042 21.2763 87.4667 21.291C87.5322 21.3058 87.6125 21.3235 87.7167 21.3442C87.8834 21.3796 88.0263 21.415 88.1513 21.4534C88.2734 21.4918 88.3746 21.542 88.452 21.604C88.5293 21.666 88.5889 21.7428 88.6276 21.8373C88.6663 21.9317 88.6841 22.0469 88.6841 22.1857V22.2388C88.6841 22.3392 88.6603 22.4366 88.6157 22.5282C88.568 22.6197 88.5026 22.7024 88.4133 22.7703C88.324 22.8412 88.2138 22.8943 88.0828 22.9356C87.9519 22.977 87.803 22.9976 87.6364 22.9976C87.4161 22.9976 87.2077 22.9681 87.0113 22.912C86.8148 22.8559 86.6541 22.7762 86.5261 22.6758L86.794 22.2181C86.913 22.2979 87.038 22.3628 87.172 22.413C87.3059 22.4632 87.4548 22.4898 87.6215 22.4898L87.6244 22.4957Z" fill="#A6A7AA"/>
<path d="M91.3601 22.7228C91.2321 22.8084 91.0833 22.8763 90.9107 22.9265C90.738 22.9767 90.5267 23.0033 90.2766 23.0033C90.1218 23.0033 89.976 22.9826 89.8301 22.9442C89.6872 22.9058 89.5592 22.8379 89.4432 22.7434C89.33 22.649 89.2378 22.525 89.1693 22.3685C89.1008 22.212 89.0651 22.0171 89.0651 21.7809V21.5093C89.0651 21.2967 89.0979 21.1136 89.1604 20.9601C89.2229 20.8065 89.3092 20.6796 89.4164 20.5792C89.5235 20.4788 89.6515 20.405 89.7974 20.3577C89.9432 20.3105 90.101 20.2869 90.2707 20.2869C90.4403 20.2869 90.5892 20.3105 90.7321 20.3577C90.8749 20.405 90.997 20.4788 91.0982 20.5733C91.1994 20.6707 91.2798 20.7918 91.3363 20.9335C91.3929 21.0782 91.4226 21.2435 91.4226 21.4354V21.8665H89.6545C89.6545 22.0762 89.7111 22.2326 89.8212 22.3389C89.9343 22.4452 90.095 22.4984 90.3034 22.4984C90.4612 22.4984 90.5981 22.4807 90.7201 22.4482C90.8422 22.4157 90.9702 22.3596 91.1041 22.2828L91.3542 22.7169L91.3601 22.7228ZM90.8481 21.4207V21.3055C90.8481 21.2347 90.8362 21.1697 90.8184 21.1047C90.7975 21.0398 90.7618 20.9866 90.7142 20.9394C90.6666 20.8922 90.607 20.8538 90.5326 20.8242C90.4582 20.7947 90.3689 20.7829 90.2647 20.7829C90.0623 20.7829 89.9135 20.8361 89.8123 20.9394C89.7111 21.0427 89.6605 21.1697 89.6605 21.3203V21.4207H90.8481Z" fill="#A6A7AA"/>
<path d="M33.622 24.226L40.5397 31.1677H36.8189L30.7942 25.1236V35.0002H43.6533V17.7568H40.1081L33.622 24.226Z" fill="url(#paint6_linear_9_28150)"/>
<path d="M19.6853 15.5894L14.5 15.5864L21.507 22.6196L21.5963 32.437L24.2009 29.8446L24.1146 20.0331L19.6853 15.5894Z" fill="url(#paint7_linear_9_28150)"/>
<path d="M40.6112 13.0118L17.1075 13L19.6853 15.5895L24.1146 20.0332L24.2009 29.8447L27.8622 26.2041V16.0146H30.8954V23.1895V23.1954L40.8047 13.3455L41.1351 13.0148L40.6112 13.0118Z" fill="#CFD1D2"/>
<defs>
<linearGradient id="paint0_linear_9_28150" x1="50.717" y1="25.6931" x2="50.717" y2="33.2784" gradientUnits="userSpaceOnUse">
<stop stop-color="#1C3969"/>
<stop offset="0.05" stop-color="#1C3A6B"/>
<stop offset="1" stop-color="#284EA1"/>
</linearGradient>
<linearGradient id="paint1_linear_9_28150" x1="58.0871" y1="12.9998" x2="58.0871" y2="33.3611" gradientUnits="userSpaceOnUse">
<stop stop-color="#1C3969"/>
<stop offset="0.05" stop-color="#1C3A6B"/>
<stop offset="1" stop-color="#284EA1"/>
</linearGradient>
<linearGradient id="paint2_linear_9_28150" x1="66.0051" y1="25.5781" x2="66.0051" y2="33.4587" gradientUnits="userSpaceOnUse">
<stop stop-color="#1C3969"/>
<stop offset="0.05" stop-color="#1C3A6B"/>
<stop offset="1" stop-color="#284EA1"/>
</linearGradient>
<linearGradient id="paint3_linear_9_28150" x1="73.3484" y1="13.0001" x2="73.3484" y2="13.0001" gradientUnits="userSpaceOnUse">
<stop stop-color="#1C3969"/>
<stop offset="0.05" stop-color="#1C3A6B"/>
<stop offset="1" stop-color="#284EA1"/>
</linearGradient>
<linearGradient id="paint4_linear_9_28150" x1="80.9389" y1="12.9998" x2="80.9389" y2="33.3611" gradientUnits="userSpaceOnUse">
<stop stop-color="#1C3969"/>
<stop offset="0.05" stop-color="#1C3A6B"/>
<stop offset="1" stop-color="#284EA1"/>
</linearGradient>
<linearGradient id="paint5_linear_9_28150" x1="88.3657" y1="12.9998" x2="88.3657" y2="33.3699" gradientUnits="userSpaceOnUse">
<stop stop-color="#1C3969"/>
<stop offset="0.05" stop-color="#1C3A6B"/>
<stop offset="1" stop-color="#284EA1"/>
</linearGradient>
<linearGradient id="paint6_linear_9_28150" x1="37.2237" y1="17.7568" x2="37.2237" y2="35.0002" gradientUnits="userSpaceOnUse">
<stop stop-color="#1C3969"/>
<stop offset="0.05" stop-color="#1C3A6B"/>
<stop offset="1" stop-color="#284EA1"/>
</linearGradient>
<linearGradient id="paint7_linear_9_28150" x1="19.3519" y1="15.5864" x2="19.3519" y2="32.437" gradientUnits="userSpaceOnUse">
<stop stop-color="#1C3969"/>
<stop offset="0.05" stop-color="#1C3A6B"/>
<stop offset="1" stop-color="#284EA1"/>
</linearGradient>
</defs>
</svg>
